M48
; DRILL file KiCad 10.0.4 date 2026-07-30T09:30:20
; FORMAT={-:-/ absolute / metric / decimal}
; #@! TF.CreationDate,2026-07-30T09:30:20-07:00
; #@! TF.GenerationSoftware,Kicad,Pcbnew,10.0.4
; #@! TF.FileFunction,MixedPlating,1,2
FMAT,2
METRIC
; #@! TA.AperFunction,Plated,PTH,ViaDrill
T1C0.300
; #@! TA.AperFunction,Plated,PTH,ComponentDrill
T2C0.600
; #@! TA.AperFunction,Plated,PTH,ComponentDrill
T3C0.800
; #@! TA.AperFunction,Plated,PTH,ComponentDrill
T4C0.850
; #@! TA.AperFunction,Plated,PTH,ComponentDrill
T5C0.900
; #@! TA.AperFunction,Plated,PTH,ComponentDrill
T6C1.000
; #@! TA.AperFunction,Plated,PTH,ComponentDrill
T7C1.100
%
G90
G05
T1
X92.0Y-62.5
X92.0Y-80.0
X93.5Y-64.5
X93.5Y-82.0
X95.5Y-80.0
X97.0Y-82.0
X97.934Y-86.434
X98.5Y-87.0
X98.759Y-84.198
X99.5Y-84.5
X99.5Y-87.5
X100.5Y-85.5
X101.5Y-105.5
X103.0Y-103.5
X114.0Y-77.0
X116.0Y-78.0
X120.0Y-100.9
X121.0Y-102.1
X123.5Y-81.775
X126.0Y-84.6
X126.469Y-83.049
X126.5Y-77.0
X126.9Y-82.375
X127.0Y-75.5
X127.0Y-84.0
X129.0Y-71.5
X129.0Y-73.5
X129.0Y-75.5
X129.0Y-81.5
X129.0Y-87.47
X129.5Y-76.5
X129.5Y-83.0
X129.5Y-89.0
X130.0Y-84.0
X133.5Y-109.5
X134.5Y-112.0
X141.5Y-109.5
X142.5Y-99.5
X142.5Y-111.5
X143.0Y-101.5
X144.0Y-92.0
X144.5Y-93.55
X145.0Y-46.4
X145.0Y-47.6
X145.0Y-105.5
X146.71Y-106.0
X147.5Y-66.5
X147.5Y-69.0
X148.5Y-91.5
X148.5Y-94.0
X151.0Y-112.5
X152.5Y-113.5
T3
X116.478Y-97.981
X116.5Y-91.5
X118.38Y-73.0
X121.478Y-97.981
X121.5Y-91.5
X122.5Y-86.5
X123.0Y-80.0
X123.5Y-104.5
X126.0Y-73.0
X127.0Y-92.5
X127.0Y-97.38
X127.5Y-86.5
X128.0Y-80.0
X128.5Y-104.5
X132.38Y-72.48
X132.38Y-75.02
X132.38Y-77.56
X132.38Y-80.1
X132.38Y-82.64
X132.38Y-85.18
X132.38Y-87.72
X132.38Y-90.26
X132.38Y-92.8
X132.38Y-95.34
X132.38Y-97.88
X132.38Y-100.42
X132.38Y-102.96
X132.38Y-105.5
X140.0Y-72.48
X140.0Y-75.02
X140.0Y-77.56
X140.0Y-80.1
X140.0Y-82.64
X140.0Y-85.18
X140.0Y-87.72
X140.0Y-90.26
X140.0Y-92.8
X140.0Y-95.34
X140.0Y-97.88
X140.0Y-100.42
X140.0Y-102.96
X140.0Y-105.5
X176.88Y-61.5
X179.38Y-78.5
X180.38Y-95.5
X184.5Y-61.5
X187.0Y-78.5
X188.0Y-95.5
T4
X80.5Y-55.0
X85.5Y-55.0
T5
X194.96Y-62.0
X194.96Y-78.5
X194.96Y-95.5
X197.5Y-62.0
X197.5Y-78.5
X197.5Y-95.5
T6
X83.0Y-80.96
X83.0Y-83.5
X139.88Y-51.5
X142.42Y-51.5
X144.96Y-51.5
X145.96Y-97.92
X145.96Y-100.46
X145.96Y-103.0
X147.5Y-51.5
X148.5Y-97.92
X148.5Y-100.46
X148.5Y-103.0
X181.4Y-115.0
X189.0Y-115.0
T7
X104.5Y-71.0
X104.5Y-75.5
X111.0Y-71.0
X111.0Y-75.5
T2
G00X79.5Y-52.65
M15
G01X79.5Y-51.95
M16
G05
G00X86.5Y-51.95
M15
G01X86.5Y-52.65
M16
G05
M30
