%TF.GenerationSoftware,KiCad,Pcbnew,10.0.4*%
%TF.CreationDate,2026-07-30T09:30:20-07:00*%
%TF.ProjectId,Mini_Reverse_Parking_Sensor,4d696e69-5f52-4657-9665-7273655f5061,Rev A*%
%TF.SameCoordinates,Original*%
%TF.FileFunction,Drillmap*%
%TF.FilePolarity,Positive*%
%FSLAX45Y45*%
G04 Gerber Fmt 4.5, Leading zero omitted, Abs format (unit mm)*
G04 Created by KiCad (PCBNEW 10.0.4) date 2026-07-30 09:30:20*
%MOMM*%
%LPD*%
G01*
G04 APERTURE LIST*
%ADD10C,0.150000*%
%ADD11C,0.200000*%
%ADD12C,0.100000*%
%ADD13C,0.110000*%
G04 APERTURE END LIST*
D10*
X7813500Y-4464500D02*
X7813500Y-4464500D01*
G75*
G02*
X8113500Y-4164500I300000J0D01*
G01*
X20513500Y-4164500D01*
G75*
G02*
X20813500Y-4464500I0J-300000D01*
G01*
X20813500Y-12864500D01*
G75*
G02*
X20513500Y-13164500I-300000J0D01*
G01*
X8113500Y-13164500D01*
G75*
G02*
X7813500Y-12864500I0J300000D01*
G01*
X7813500Y-4464500D01*
D11*
D12*
X9185000Y-6235000D02*
X9215000Y-6265000D01*
X9215000Y-6235000D02*
X9185000Y-6265000D01*
X9185000Y-7985000D02*
X9215000Y-8015000D01*
X9215000Y-7985000D02*
X9185000Y-8015000D01*
X9335000Y-6435000D02*
X9365000Y-6465000D01*
X9365000Y-6435000D02*
X9335000Y-6465000D01*
X9335000Y-8185000D02*
X9365000Y-8215000D01*
X9365000Y-8185000D02*
X9335000Y-8215000D01*
X9535000Y-7985000D02*
X9565000Y-8015000D01*
X9565000Y-7985000D02*
X9535000Y-8015000D01*
X9685000Y-8185000D02*
X9715000Y-8215000D01*
X9715000Y-8185000D02*
X9685000Y-8215000D01*
X9778431Y-8628431D02*
X9808431Y-8658431D01*
X9808431Y-8628431D02*
X9778431Y-8658431D01*
X9835000Y-8685000D02*
X9865000Y-8715000D01*
X9865000Y-8685000D02*
X9835000Y-8715000D01*
X9860904Y-8404838D02*
X9890904Y-8434838D01*
X9890904Y-8404838D02*
X9860904Y-8434838D01*
X9935000Y-8435000D02*
X9965000Y-8465000D01*
X9965000Y-8435000D02*
X9935000Y-8465000D01*
X9935000Y-8735000D02*
X9965000Y-8765000D01*
X9965000Y-8735000D02*
X9935000Y-8765000D01*
X10035000Y-8535000D02*
X10065000Y-8565000D01*
X10065000Y-8535000D02*
X10035000Y-8565000D01*
X10135000Y-10535000D02*
X10165000Y-10565000D01*
X10165000Y-10535000D02*
X10135000Y-10565000D01*
X10285000Y-10335000D02*
X10315000Y-10365000D01*
X10315000Y-10335000D02*
X10285000Y-10365000D01*
X11385000Y-7685000D02*
X11415000Y-7715000D01*
X11415000Y-7685000D02*
X11385000Y-7715000D01*
X11585000Y-7785000D02*
X11615000Y-7815000D01*
X11615000Y-7785000D02*
X11585000Y-7815000D01*
X11985000Y-10075000D02*
X12015000Y-10105000D01*
X12015000Y-10075000D02*
X11985000Y-10105000D01*
X12085000Y-10195000D02*
X12115000Y-10225000D01*
X12115000Y-10195000D02*
X12085000Y-10225000D01*
X12335000Y-8162530D02*
X12365000Y-8192530D01*
X12365000Y-8162530D02*
X12335000Y-8192530D01*
X12585000Y-8445000D02*
X12615000Y-8475000D01*
X12615000Y-8445000D02*
X12585000Y-8475000D01*
X12631866Y-8289891D02*
X12661866Y-8319891D01*
X12661866Y-8289891D02*
X12631866Y-8319891D01*
X12635000Y-7685000D02*
X12665000Y-7715000D01*
X12665000Y-7685000D02*
X12635000Y-7715000D01*
X12675024Y-8222530D02*
X12705024Y-8252530D01*
X12705024Y-8222530D02*
X12675024Y-8252530D01*
X12685000Y-7535000D02*
X12715000Y-7565000D01*
X12715000Y-7535000D02*
X12685000Y-7565000D01*
X12685000Y-8385000D02*
X12715000Y-8415000D01*
X12715000Y-8385000D02*
X12685000Y-8415000D01*
X12885000Y-7135000D02*
X12915000Y-7165000D01*
X12915000Y-7135000D02*
X12885000Y-7165000D01*
X12885000Y-7335000D02*
X12915000Y-7365000D01*
X12915000Y-7335000D02*
X12885000Y-7365000D01*
X12885000Y-7535000D02*
X12915000Y-7565000D01*
X12915000Y-7535000D02*
X12885000Y-7565000D01*
X12885000Y-8135000D02*
X12915000Y-8165000D01*
X12915000Y-8135000D02*
X12885000Y-8165000D01*
X12885000Y-8732000D02*
X12915000Y-8762000D01*
X12915000Y-8732000D02*
X12885000Y-8762000D01*
X12935000Y-7635000D02*
X12965000Y-7665000D01*
X12965000Y-7635000D02*
X12935000Y-7665000D01*
X12935000Y-8285000D02*
X12965000Y-8315000D01*
X12965000Y-8285000D02*
X12935000Y-8315000D01*
X12935000Y-8885000D02*
X12965000Y-8915000D01*
X12965000Y-8885000D02*
X12935000Y-8915000D01*
X12985000Y-8385000D02*
X13015000Y-8415000D01*
X13015000Y-8385000D02*
X12985000Y-8415000D01*
X13335000Y-10935000D02*
X13365000Y-10965000D01*
X13365000Y-10935000D02*
X13335000Y-10965000D01*
X13435000Y-11185000D02*
X13465000Y-11215000D01*
X13465000Y-11185000D02*
X13435000Y-11215000D01*
X14135000Y-10935000D02*
X14165000Y-10965000D01*
X14165000Y-10935000D02*
X14135000Y-10965000D01*
X14235000Y-9935000D02*
X14265000Y-9965000D01*
X14265000Y-9935000D02*
X14235000Y-9965000D01*
X14235000Y-11135000D02*
X14265000Y-11165000D01*
X14265000Y-11135000D02*
X14235000Y-11165000D01*
X14285000Y-10135000D02*
X14315000Y-10165000D01*
X14315000Y-10135000D02*
X14285000Y-10165000D01*
X14385000Y-9185000D02*
X14415000Y-9215000D01*
X14415000Y-9185000D02*
X14385000Y-9215000D01*
X14435000Y-9340000D02*
X14465000Y-9370000D01*
X14465000Y-9340000D02*
X14435000Y-9370000D01*
X14485000Y-4625000D02*
X14515000Y-4655000D01*
X14515000Y-4625000D02*
X14485000Y-4655000D01*
X14485000Y-4745000D02*
X14515000Y-4775000D01*
X14515000Y-4745000D02*
X14485000Y-4775000D01*
X14485000Y-10535000D02*
X14515000Y-10565000D01*
X14515000Y-10535000D02*
X14485000Y-10565000D01*
X14656000Y-10585000D02*
X14686000Y-10615000D01*
X14686000Y-10585000D02*
X14656000Y-10615000D01*
X14735000Y-6635000D02*
X14765000Y-6665000D01*
X14765000Y-6635000D02*
X14735000Y-6665000D01*
X14735000Y-6885000D02*
X14765000Y-6915000D01*
X14765000Y-6885000D02*
X14735000Y-6915000D01*
X14835000Y-9135000D02*
X14865000Y-9165000D01*
X14865000Y-9135000D02*
X14835000Y-9165000D01*
X14835000Y-9385000D02*
X14865000Y-9415000D01*
X14865000Y-9385000D02*
X14835000Y-9415000D01*
X15085000Y-11235000D02*
X15115000Y-11265000D01*
X15115000Y-11235000D02*
X15085000Y-11265000D01*
X15235000Y-11335000D02*
X15265000Y-11365000D01*
X15265000Y-11335000D02*
X15235000Y-11365000D01*
X7980000Y-5230000D02*
G75*
G02*
X7920000Y-5230000I-30000J0D01*
G01*
X7920000Y-5230000D02*
G75*
G02*
X7980000Y-5230000I30000J0D01*
G01*
X7980000Y-5265000D02*
X7980000Y-5195000D01*
X7920000Y-5195000D02*
G75*
G02*
X7980000Y-5195000I30000J0D01*
G01*
X7920000Y-5195000D02*
X7920000Y-5265000D01*
X7920000Y-5265000D02*
G75*
G03*
X7980000Y-5265000I30000J0D01*
G01*
X8680000Y-5230000D02*
G75*
G02*
X8620000Y-5230000I-30000J0D01*
G01*
X8620000Y-5230000D02*
G75*
G02*
X8680000Y-5230000I30000J0D01*
G01*
X8620000Y-5195000D02*
X8620000Y-5265000D01*
X8680000Y-5265000D02*
G75*
G02*
X8620000Y-5265000I-30000J0D01*
G01*
X8680000Y-5265000D02*
X8680000Y-5195000D01*
X8680000Y-5195000D02*
G75*
G03*
X8620000Y-5195000I-30000J0D01*
G01*
X11647815Y-9758051D02*
X11647815Y-9838051D01*
X11607815Y-9798051D02*
X11687815Y-9798051D01*
X11650000Y-9110000D02*
X11650000Y-9190000D01*
X11610000Y-9150000D02*
X11690000Y-9150000D01*
X11838000Y-7260000D02*
X11838000Y-7340000D01*
X11798000Y-7300000D02*
X11878000Y-7300000D01*
X12147815Y-9758051D02*
X12147815Y-9838051D01*
X12107815Y-9798051D02*
X12187815Y-9798051D01*
X12150000Y-9110000D02*
X12150000Y-9190000D01*
X12110000Y-9150000D02*
X12190000Y-9150000D01*
X12250000Y-8610000D02*
X12250000Y-8690000D01*
X12210000Y-8650000D02*
X12290000Y-8650000D01*
X12300000Y-7960000D02*
X12300000Y-8040000D01*
X12260000Y-8000000D02*
X12340000Y-8000000D01*
X12350000Y-10410000D02*
X12350000Y-10490000D01*
X12310000Y-10450000D02*
X12390000Y-10450000D01*
X12600000Y-7260000D02*
X12600000Y-7340000D01*
X12560000Y-7300000D02*
X12640000Y-7300000D01*
X12700000Y-9210000D02*
X12700000Y-9290000D01*
X12660000Y-9250000D02*
X12740000Y-9250000D01*
X12700000Y-9698000D02*
X12700000Y-9778000D01*
X12660000Y-9738000D02*
X12740000Y-9738000D01*
X12750000Y-8610000D02*
X12750000Y-8690000D01*
X12710000Y-8650000D02*
X12790000Y-8650000D01*
X12800000Y-7960000D02*
X12800000Y-8040000D01*
X12760000Y-8000000D02*
X12840000Y-8000000D01*
X12850000Y-10410000D02*
X12850000Y-10490000D01*
X12810000Y-10450000D02*
X12890000Y-10450000D01*
X13238000Y-7208000D02*
X13238000Y-7288000D01*
X13198000Y-7248000D02*
X13278000Y-7248000D01*
X13238000Y-7462000D02*
X13238000Y-7542000D01*
X13198000Y-7502000D02*
X13278000Y-7502000D01*
X13238000Y-7716000D02*
X13238000Y-7796000D01*
X13198000Y-7756000D02*
X13278000Y-7756000D01*
X13238000Y-7970000D02*
X13238000Y-8050000D01*
X13198000Y-8010000D02*
X13278000Y-8010000D01*
X13238000Y-8224000D02*
X13238000Y-8304000D01*
X13198000Y-8264000D02*
X13278000Y-8264000D01*
X13238000Y-8478000D02*
X13238000Y-8558000D01*
X13198000Y-8518000D02*
X13278000Y-8518000D01*
X13238000Y-8732000D02*
X13238000Y-8812000D01*
X13198000Y-8772000D02*
X13278000Y-8772000D01*
X13238000Y-8986000D02*
X13238000Y-9066000D01*
X13198000Y-9026000D02*
X13278000Y-9026000D01*
X13238000Y-9240000D02*
X13238000Y-9320000D01*
X13198000Y-9280000D02*
X13278000Y-9280000D01*
X13238000Y-9494000D02*
X13238000Y-9574000D01*
X13198000Y-9534000D02*
X13278000Y-9534000D01*
X13238000Y-9748000D02*
X13238000Y-9828000D01*
X13198000Y-9788000D02*
X13278000Y-9788000D01*
X13238000Y-10002000D02*
X13238000Y-10082000D01*
X13198000Y-10042000D02*
X13278000Y-10042000D01*
X13238000Y-10256000D02*
X13238000Y-10336000D01*
X13198000Y-10296000D02*
X13278000Y-10296000D01*
X13238000Y-10510000D02*
X13238000Y-10590000D01*
X13198000Y-10550000D02*
X13278000Y-10550000D01*
X14000000Y-7208000D02*
X14000000Y-7288000D01*
X13960000Y-7248000D02*
X14040000Y-7248000D01*
X14000000Y-7462000D02*
X14000000Y-7542000D01*
X13960000Y-7502000D02*
X14040000Y-7502000D01*
X14000000Y-7716000D02*
X14000000Y-7796000D01*
X13960000Y-7756000D02*
X14040000Y-7756000D01*
X14000000Y-7970000D02*
X14000000Y-8050000D01*
X13960000Y-8010000D02*
X14040000Y-8010000D01*
X14000000Y-8224000D02*
X14000000Y-8304000D01*
X13960000Y-8264000D02*
X14040000Y-8264000D01*
X14000000Y-8478000D02*
X14000000Y-8558000D01*
X13960000Y-8518000D02*
X14040000Y-8518000D01*
X14000000Y-8732000D02*
X14000000Y-8812000D01*
X13960000Y-8772000D02*
X14040000Y-8772000D01*
X14000000Y-8986000D02*
X14000000Y-9066000D01*
X13960000Y-9026000D02*
X14040000Y-9026000D01*
X14000000Y-9240000D02*
X14000000Y-9320000D01*
X13960000Y-9280000D02*
X14040000Y-9280000D01*
X14000000Y-9494000D02*
X14000000Y-9574000D01*
X13960000Y-9534000D02*
X14040000Y-9534000D01*
X14000000Y-9748000D02*
X14000000Y-9828000D01*
X13960000Y-9788000D02*
X14040000Y-9788000D01*
X14000000Y-10002000D02*
X14000000Y-10082000D01*
X13960000Y-10042000D02*
X14040000Y-10042000D01*
X14000000Y-10256000D02*
X14000000Y-10336000D01*
X13960000Y-10296000D02*
X14040000Y-10296000D01*
X14000000Y-10510000D02*
X14000000Y-10590000D01*
X13960000Y-10550000D02*
X14040000Y-10550000D01*
X17688000Y-6110000D02*
X17688000Y-6190000D01*
X17648000Y-6150000D02*
X17728000Y-6150000D01*
X17938000Y-7810000D02*
X17938000Y-7890000D01*
X17898000Y-7850000D02*
X17978000Y-7850000D01*
X18038000Y-9510000D02*
X18038000Y-9590000D01*
X17998000Y-9550000D02*
X18078000Y-9550000D01*
X18450000Y-6110000D02*
X18450000Y-6190000D01*
X18410000Y-6150000D02*
X18490000Y-6150000D01*
X18700000Y-7810000D02*
X18700000Y-7890000D01*
X18660000Y-7850000D02*
X18740000Y-7850000D01*
X18800000Y-9510000D02*
X18800000Y-9590000D01*
X18760000Y-9550000D02*
X18840000Y-9550000D01*
X8080052Y-5530052D02*
X8080052Y-5469948D01*
X8019948Y-5469948D01*
X8019948Y-5530052D01*
X8080052Y-5530052D01*
X8580052Y-5530052D02*
X8580052Y-5469948D01*
X8519948Y-5469948D01*
X8519948Y-5530052D01*
X8580052Y-5530052D01*
X19496000Y-6245000D02*
X19541000Y-6200000D01*
X19496000Y-6155000D01*
X19451000Y-6200000D01*
X19496000Y-6245000D01*
X19496000Y-7895000D02*
X19541000Y-7850000D01*
X19496000Y-7805000D01*
X19451000Y-7850000D01*
X19496000Y-7895000D01*
X19496000Y-9595000D02*
X19541000Y-9550000D01*
X19496000Y-9505000D01*
X19451000Y-9550000D01*
X19496000Y-9595000D01*
X19750000Y-6245000D02*
X19795000Y-6200000D01*
X19750000Y-6155000D01*
X19705000Y-6200000D01*
X19750000Y-6245000D01*
X19750000Y-7895000D02*
X19795000Y-7850000D01*
X19750000Y-7805000D01*
X19705000Y-7850000D01*
X19750000Y-7895000D01*
X19750000Y-9595000D02*
X19795000Y-9550000D01*
X19750000Y-9505000D01*
X19705000Y-9550000D01*
X19750000Y-9595000D01*
X8250000Y-8046000D02*
X8350000Y-8146000D01*
X8350000Y-8046000D02*
X8250000Y-8146000D01*
X8350000Y-8096000D02*
G75*
G02*
X8250000Y-8096000I-50000J0D01*
G01*
X8250000Y-8096000D02*
G75*
G02*
X8350000Y-8096000I50000J0D01*
G01*
X8250000Y-8300000D02*
X8350000Y-8400000D01*
X8350000Y-8300000D02*
X8250000Y-8400000D01*
X8350000Y-8350000D02*
G75*
G02*
X8250000Y-8350000I-50000J0D01*
G01*
X8250000Y-8350000D02*
G75*
G02*
X8350000Y-8350000I50000J0D01*
G01*
X13938000Y-5100000D02*
X14038000Y-5200000D01*
X14038000Y-5100000D02*
X13938000Y-5200000D01*
X14038000Y-5150000D02*
G75*
G02*
X13938000Y-5150000I-50000J0D01*
G01*
X13938000Y-5150000D02*
G75*
G02*
X14038000Y-5150000I50000J0D01*
G01*
X14192000Y-5100000D02*
X14292000Y-5200000D01*
X14292000Y-5100000D02*
X14192000Y-5200000D01*
X14292000Y-5150000D02*
G75*
G02*
X14192000Y-5150000I-50000J0D01*
G01*
X14192000Y-5150000D02*
G75*
G02*
X14292000Y-5150000I50000J0D01*
G01*
X14446000Y-5100000D02*
X14546000Y-5200000D01*
X14546000Y-5100000D02*
X14446000Y-5200000D01*
X14546000Y-5150000D02*
G75*
G02*
X14446000Y-5150000I-50000J0D01*
G01*
X14446000Y-5150000D02*
G75*
G02*
X14546000Y-5150000I50000J0D01*
G01*
X14546000Y-9742000D02*
X14646000Y-9842000D01*
X14646000Y-9742000D02*
X14546000Y-9842000D01*
X14646000Y-9792000D02*
G75*
G02*
X14546000Y-9792000I-50000J0D01*
G01*
X14546000Y-9792000D02*
G75*
G02*
X14646000Y-9792000I50000J0D01*
G01*
X14546000Y-9996000D02*
X14646000Y-10096000D01*
X14646000Y-9996000D02*
X14546000Y-10096000D01*
X14646000Y-10046000D02*
G75*
G02*
X14546000Y-10046000I-50000J0D01*
G01*
X14546000Y-10046000D02*
G75*
G02*
X14646000Y-10046000I50000J0D01*
G01*
X14546000Y-10250000D02*
X14646000Y-10350000D01*
X14646000Y-10250000D02*
X14546000Y-10350000D01*
X14646000Y-10300000D02*
G75*
G02*
X14546000Y-10300000I-50000J0D01*
G01*
X14546000Y-10300000D02*
G75*
G02*
X14646000Y-10300000I50000J0D01*
G01*
X14700000Y-5100000D02*
X14800000Y-5200000D01*
X14800000Y-5100000D02*
X14700000Y-5200000D01*
X14800000Y-5150000D02*
G75*
G02*
X14700000Y-5150000I-50000J0D01*
G01*
X14700000Y-5150000D02*
G75*
G02*
X14800000Y-5150000I50000J0D01*
G01*
X14800000Y-9742000D02*
X14900000Y-9842000D01*
X14900000Y-9742000D02*
X14800000Y-9842000D01*
X14900000Y-9792000D02*
G75*
G02*
X14800000Y-9792000I-50000J0D01*
G01*
X14800000Y-9792000D02*
G75*
G02*
X14900000Y-9792000I50000J0D01*
G01*
X14800000Y-9996000D02*
X14900000Y-10096000D01*
X14900000Y-9996000D02*
X14800000Y-10096000D01*
X14900000Y-10046000D02*
G75*
G02*
X14800000Y-10046000I-50000J0D01*
G01*
X14800000Y-10046000D02*
G75*
G02*
X14900000Y-10046000I50000J0D01*
G01*
X14800000Y-10250000D02*
X14900000Y-10350000D01*
X14900000Y-10250000D02*
X14800000Y-10350000D01*
X14900000Y-10300000D02*
G75*
G02*
X14800000Y-10300000I-50000J0D01*
G01*
X14800000Y-10300000D02*
G75*
G02*
X14900000Y-10300000I50000J0D01*
G01*
X18090000Y-11450000D02*
X18190000Y-11550000D01*
X18190000Y-11450000D02*
X18090000Y-11550000D01*
X18190000Y-11500000D02*
G75*
G02*
X18090000Y-11500000I-50000J0D01*
G01*
X18090000Y-11500000D02*
G75*
G02*
X18190000Y-11500000I50000J0D01*
G01*
X18850000Y-11450000D02*
X18950000Y-11550000D01*
X18950000Y-11450000D02*
X18850000Y-11550000D01*
X18950000Y-11500000D02*
G75*
G02*
X18850000Y-11500000I-50000J0D01*
G01*
X18850000Y-11500000D02*
G75*
G02*
X18950000Y-11500000I50000J0D01*
G01*
D13*
X10395000Y-7045000D02*
X10505000Y-7155000D01*
X10505000Y-7045000D02*
X10395000Y-7155000D01*
X10450000Y-7045000D02*
X10450000Y-7155000D01*
X10395000Y-7100000D02*
X10505000Y-7100000D01*
X10395000Y-7495000D02*
X10505000Y-7605000D01*
X10505000Y-7495000D02*
X10395000Y-7605000D01*
X10450000Y-7495000D02*
X10450000Y-7605000D01*
X10395000Y-7550000D02*
X10505000Y-7550000D01*
X11045000Y-7045000D02*
X11155000Y-7155000D01*
X11155000Y-7045000D02*
X11045000Y-7155000D01*
X11100000Y-7045000D02*
X11100000Y-7155000D01*
X11045000Y-7100000D02*
X11155000Y-7100000D01*
X11045000Y-7495000D02*
X11155000Y-7605000D01*
X11155000Y-7495000D02*
X11045000Y-7605000D01*
X11100000Y-7495000D02*
X11100000Y-7605000D01*
X11045000Y-7550000D02*
X11155000Y-7550000D01*
D11*
X8066777Y-13483484D02*
X8066777Y-13283484D01*
X8066777Y-13283484D02*
X8114396Y-13283484D01*
X8114396Y-13283484D02*
X8142967Y-13293008D01*
X8142967Y-13293008D02*
X8162015Y-13312055D01*
X8162015Y-13312055D02*
X8171539Y-13331103D01*
X8171539Y-13331103D02*
X8181062Y-13369198D01*
X8181062Y-13369198D02*
X8181062Y-13397769D01*
X8181062Y-13397769D02*
X8171539Y-13435865D01*
X8171539Y-13435865D02*
X8162015Y-13454912D01*
X8162015Y-13454912D02*
X8142967Y-13473960D01*
X8142967Y-13473960D02*
X8114396Y-13483484D01*
X8114396Y-13483484D02*
X8066777Y-13483484D01*
X8266777Y-13483484D02*
X8266777Y-13350150D01*
X8266777Y-13388246D02*
X8276301Y-13369198D01*
X8276301Y-13369198D02*
X8285824Y-13359674D01*
X8285824Y-13359674D02*
X8304872Y-13350150D01*
X8304872Y-13350150D02*
X8323920Y-13350150D01*
X8390586Y-13483484D02*
X8390586Y-13350150D01*
X8390586Y-13283484D02*
X8381062Y-13293008D01*
X8381062Y-13293008D02*
X8390586Y-13302531D01*
X8390586Y-13302531D02*
X8400110Y-13293008D01*
X8400110Y-13293008D02*
X8390586Y-13283484D01*
X8390586Y-13283484D02*
X8390586Y-13302531D01*
X8514396Y-13483484D02*
X8495348Y-13473960D01*
X8495348Y-13473960D02*
X8485824Y-13454912D01*
X8485824Y-13454912D02*
X8485824Y-13283484D01*
X8619158Y-13483484D02*
X8600110Y-13473960D01*
X8600110Y-13473960D02*
X8590586Y-13454912D01*
X8590586Y-13454912D02*
X8590586Y-13283484D01*
X8847729Y-13483484D02*
X8847729Y-13283484D01*
X8847729Y-13283484D02*
X8914396Y-13426341D01*
X8914396Y-13426341D02*
X8981063Y-13283484D01*
X8981063Y-13283484D02*
X8981063Y-13483484D01*
X9162015Y-13483484D02*
X9162015Y-13378722D01*
X9162015Y-13378722D02*
X9152491Y-13359674D01*
X9152491Y-13359674D02*
X9133444Y-13350150D01*
X9133444Y-13350150D02*
X9095348Y-13350150D01*
X9095348Y-13350150D02*
X9076301Y-13359674D01*
X9162015Y-13473960D02*
X9142967Y-13483484D01*
X9142967Y-13483484D02*
X9095348Y-13483484D01*
X9095348Y-13483484D02*
X9076301Y-13473960D01*
X9076301Y-13473960D02*
X9066777Y-13454912D01*
X9066777Y-13454912D02*
X9066777Y-13435865D01*
X9066777Y-13435865D02*
X9076301Y-13416817D01*
X9076301Y-13416817D02*
X9095348Y-13407293D01*
X9095348Y-13407293D02*
X9142967Y-13407293D01*
X9142967Y-13407293D02*
X9162015Y-13397769D01*
X9257253Y-13350150D02*
X9257253Y-13550150D01*
X9257253Y-13359674D02*
X9276301Y-13350150D01*
X9276301Y-13350150D02*
X9314396Y-13350150D01*
X9314396Y-13350150D02*
X9333444Y-13359674D01*
X9333444Y-13359674D02*
X9342967Y-13369198D01*
X9342967Y-13369198D02*
X9352491Y-13388246D01*
X9352491Y-13388246D02*
X9352491Y-13445388D01*
X9352491Y-13445388D02*
X9342967Y-13464436D01*
X9342967Y-13464436D02*
X9333444Y-13473960D01*
X9333444Y-13473960D02*
X9314396Y-13483484D01*
X9314396Y-13483484D02*
X9276301Y-13483484D01*
X9276301Y-13483484D02*
X9257253Y-13473960D01*
X9438205Y-13464436D02*
X9447729Y-13473960D01*
X9447729Y-13473960D02*
X9438205Y-13483484D01*
X9438205Y-13483484D02*
X9428682Y-13473960D01*
X9428682Y-13473960D02*
X9438205Y-13464436D01*
X9438205Y-13464436D02*
X9438205Y-13483484D01*
X9438205Y-13359674D02*
X9447729Y-13369198D01*
X9447729Y-13369198D02*
X9438205Y-13378722D01*
X9438205Y-13378722D02*
X9428682Y-13369198D01*
X9428682Y-13369198D02*
X9438205Y-13359674D01*
X9438205Y-13359674D02*
X9438205Y-13378722D01*
D12*
X7776000Y-13797000D02*
X7806000Y-13827000D01*
X7806000Y-13797000D02*
X7776000Y-13827000D01*
D11*
X8104872Y-13703484D02*
X8123920Y-13703484D01*
X8123920Y-13703484D02*
X8142967Y-13713008D01*
X8142967Y-13713008D02*
X8152491Y-13722531D01*
X8152491Y-13722531D02*
X8162015Y-13741579D01*
X8162015Y-13741579D02*
X8171539Y-13779674D01*
X8171539Y-13779674D02*
X8171539Y-13827293D01*
X8171539Y-13827293D02*
X8162015Y-13865388D01*
X8162015Y-13865388D02*
X8152491Y-13884436D01*
X8152491Y-13884436D02*
X8142967Y-13893960D01*
X8142967Y-13893960D02*
X8123920Y-13903484D01*
X8123920Y-13903484D02*
X8104872Y-13903484D01*
X8104872Y-13903484D02*
X8085824Y-13893960D01*
X8085824Y-13893960D02*
X8076301Y-13884436D01*
X8076301Y-13884436D02*
X8066777Y-13865388D01*
X8066777Y-13865388D02*
X8057253Y-13827293D01*
X8057253Y-13827293D02*
X8057253Y-13779674D01*
X8057253Y-13779674D02*
X8066777Y-13741579D01*
X8066777Y-13741579D02*
X8076301Y-13722531D01*
X8076301Y-13722531D02*
X8085824Y-13713008D01*
X8085824Y-13713008D02*
X8104872Y-13703484D01*
X8257253Y-13884436D02*
X8266777Y-13893960D01*
X8266777Y-13893960D02*
X8257253Y-13903484D01*
X8257253Y-13903484D02*
X8247729Y-13893960D01*
X8247729Y-13893960D02*
X8257253Y-13884436D01*
X8257253Y-13884436D02*
X8257253Y-13903484D01*
X8333443Y-13703484D02*
X8457253Y-13703484D01*
X8457253Y-13703484D02*
X8390586Y-13779674D01*
X8390586Y-13779674D02*
X8419158Y-13779674D01*
X8419158Y-13779674D02*
X8438205Y-13789198D01*
X8438205Y-13789198D02*
X8447729Y-13798722D01*
X8447729Y-13798722D02*
X8457253Y-13817769D01*
X8457253Y-13817769D02*
X8457253Y-13865388D01*
X8457253Y-13865388D02*
X8447729Y-13884436D01*
X8447729Y-13884436D02*
X8438205Y-13893960D01*
X8438205Y-13893960D02*
X8419158Y-13903484D01*
X8419158Y-13903484D02*
X8362015Y-13903484D01*
X8362015Y-13903484D02*
X8342967Y-13893960D01*
X8342967Y-13893960D02*
X8333443Y-13884436D01*
X8581063Y-13703484D02*
X8600110Y-13703484D01*
X8600110Y-13703484D02*
X8619158Y-13713008D01*
X8619158Y-13713008D02*
X8628682Y-13722531D01*
X8628682Y-13722531D02*
X8638205Y-13741579D01*
X8638205Y-13741579D02*
X8647729Y-13779674D01*
X8647729Y-13779674D02*
X8647729Y-13827293D01*
X8647729Y-13827293D02*
X8638205Y-13865388D01*
X8638205Y-13865388D02*
X8628682Y-13884436D01*
X8628682Y-13884436D02*
X8619158Y-13893960D01*
X8619158Y-13893960D02*
X8600110Y-13903484D01*
X8600110Y-13903484D02*
X8581063Y-13903484D01*
X8581063Y-13903484D02*
X8562015Y-13893960D01*
X8562015Y-13893960D02*
X8552491Y-13884436D01*
X8552491Y-13884436D02*
X8542967Y-13865388D01*
X8542967Y-13865388D02*
X8533444Y-13827293D01*
X8533444Y-13827293D02*
X8533444Y-13779674D01*
X8533444Y-13779674D02*
X8542967Y-13741579D01*
X8542967Y-13741579D02*
X8552491Y-13722531D01*
X8552491Y-13722531D02*
X8562015Y-13713008D01*
X8562015Y-13713008D02*
X8581063Y-13703484D01*
X8771539Y-13703484D02*
X8790586Y-13703484D01*
X8790586Y-13703484D02*
X8809634Y-13713008D01*
X8809634Y-13713008D02*
X8819158Y-13722531D01*
X8819158Y-13722531D02*
X8828682Y-13741579D01*
X8828682Y-13741579D02*
X8838205Y-13779674D01*
X8838205Y-13779674D02*
X8838205Y-13827293D01*
X8838205Y-13827293D02*
X8828682Y-13865388D01*
X8828682Y-13865388D02*
X8819158Y-13884436D01*
X8819158Y-13884436D02*
X8809634Y-13893960D01*
X8809634Y-13893960D02*
X8790586Y-13903484D01*
X8790586Y-13903484D02*
X8771539Y-13903484D01*
X8771539Y-13903484D02*
X8752491Y-13893960D01*
X8752491Y-13893960D02*
X8742967Y-13884436D01*
X8742967Y-13884436D02*
X8733444Y-13865388D01*
X8733444Y-13865388D02*
X8723920Y-13827293D01*
X8723920Y-13827293D02*
X8723920Y-13779674D01*
X8723920Y-13779674D02*
X8733444Y-13741579D01*
X8733444Y-13741579D02*
X8742967Y-13722531D01*
X8742967Y-13722531D02*
X8752491Y-13713008D01*
X8752491Y-13713008D02*
X8771539Y-13703484D01*
X8923920Y-13903484D02*
X8923920Y-13770150D01*
X8923920Y-13789198D02*
X8933444Y-13779674D01*
X8933444Y-13779674D02*
X8952491Y-13770150D01*
X8952491Y-13770150D02*
X8981063Y-13770150D01*
X8981063Y-13770150D02*
X9000110Y-13779674D01*
X9000110Y-13779674D02*
X9009634Y-13798722D01*
X9009634Y-13798722D02*
X9009634Y-13903484D01*
X9009634Y-13798722D02*
X9019158Y-13779674D01*
X9019158Y-13779674D02*
X9038205Y-13770150D01*
X9038205Y-13770150D02*
X9066777Y-13770150D01*
X9066777Y-13770150D02*
X9085825Y-13779674D01*
X9085825Y-13779674D02*
X9095348Y-13798722D01*
X9095348Y-13798722D02*
X9095348Y-13903484D01*
X9190586Y-13903484D02*
X9190586Y-13770150D01*
X9190586Y-13789198D02*
X9200110Y-13779674D01*
X9200110Y-13779674D02*
X9219158Y-13770150D01*
X9219158Y-13770150D02*
X9247729Y-13770150D01*
X9247729Y-13770150D02*
X9266777Y-13779674D01*
X9266777Y-13779674D02*
X9276301Y-13798722D01*
X9276301Y-13798722D02*
X9276301Y-13903484D01*
X9276301Y-13798722D02*
X9285825Y-13779674D01*
X9285825Y-13779674D02*
X9304872Y-13770150D01*
X9304872Y-13770150D02*
X9333444Y-13770150D01*
X9333444Y-13770150D02*
X9352491Y-13779674D01*
X9352491Y-13779674D02*
X9362015Y-13798722D01*
X9362015Y-13798722D02*
X9362015Y-13903484D01*
X9752491Y-13693960D02*
X9581063Y-13951103D01*
X10009634Y-13703484D02*
X10028682Y-13703484D01*
X10028682Y-13703484D02*
X10047729Y-13713008D01*
X10047729Y-13713008D02*
X10057253Y-13722531D01*
X10057253Y-13722531D02*
X10066777Y-13741579D01*
X10066777Y-13741579D02*
X10076301Y-13779674D01*
X10076301Y-13779674D02*
X10076301Y-13827293D01*
X10076301Y-13827293D02*
X10066777Y-13865388D01*
X10066777Y-13865388D02*
X10057253Y-13884436D01*
X10057253Y-13884436D02*
X10047729Y-13893960D01*
X10047729Y-13893960D02*
X10028682Y-13903484D01*
X10028682Y-13903484D02*
X10009634Y-13903484D01*
X10009634Y-13903484D02*
X9990587Y-13893960D01*
X9990587Y-13893960D02*
X9981063Y-13884436D01*
X9981063Y-13884436D02*
X9971539Y-13865388D01*
X9971539Y-13865388D02*
X9962015Y-13827293D01*
X9962015Y-13827293D02*
X9962015Y-13779674D01*
X9962015Y-13779674D02*
X9971539Y-13741579D01*
X9971539Y-13741579D02*
X9981063Y-13722531D01*
X9981063Y-13722531D02*
X9990587Y-13713008D01*
X9990587Y-13713008D02*
X10009634Y-13703484D01*
X10162015Y-13884436D02*
X10171539Y-13893960D01*
X10171539Y-13893960D02*
X10162015Y-13903484D01*
X10162015Y-13903484D02*
X10152491Y-13893960D01*
X10152491Y-13893960D02*
X10162015Y-13884436D01*
X10162015Y-13884436D02*
X10162015Y-13903484D01*
X10295348Y-13703484D02*
X10314396Y-13703484D01*
X10314396Y-13703484D02*
X10333444Y-13713008D01*
X10333444Y-13713008D02*
X10342968Y-13722531D01*
X10342968Y-13722531D02*
X10352491Y-13741579D01*
X10352491Y-13741579D02*
X10362015Y-13779674D01*
X10362015Y-13779674D02*
X10362015Y-13827293D01*
X10362015Y-13827293D02*
X10352491Y-13865388D01*
X10352491Y-13865388D02*
X10342968Y-13884436D01*
X10342968Y-13884436D02*
X10333444Y-13893960D01*
X10333444Y-13893960D02*
X10314396Y-13903484D01*
X10314396Y-13903484D02*
X10295348Y-13903484D01*
X10295348Y-13903484D02*
X10276301Y-13893960D01*
X10276301Y-13893960D02*
X10266777Y-13884436D01*
X10266777Y-13884436D02*
X10257253Y-13865388D01*
X10257253Y-13865388D02*
X10247729Y-13827293D01*
X10247729Y-13827293D02*
X10247729Y-13779674D01*
X10247729Y-13779674D02*
X10257253Y-13741579D01*
X10257253Y-13741579D02*
X10266777Y-13722531D01*
X10266777Y-13722531D02*
X10276301Y-13713008D01*
X10276301Y-13713008D02*
X10295348Y-13703484D01*
X10552491Y-13903484D02*
X10438206Y-13903484D01*
X10495348Y-13903484D02*
X10495348Y-13703484D01*
X10495348Y-13703484D02*
X10476301Y-13732055D01*
X10476301Y-13732055D02*
X10457253Y-13751103D01*
X10457253Y-13751103D02*
X10438206Y-13760627D01*
X10742968Y-13903484D02*
X10628682Y-13903484D01*
X10685825Y-13903484D02*
X10685825Y-13703484D01*
X10685825Y-13703484D02*
X10666777Y-13732055D01*
X10666777Y-13732055D02*
X10647729Y-13751103D01*
X10647729Y-13751103D02*
X10628682Y-13760627D01*
X10857253Y-13789198D02*
X10838206Y-13779674D01*
X10838206Y-13779674D02*
X10828682Y-13770150D01*
X10828682Y-13770150D02*
X10819158Y-13751103D01*
X10819158Y-13751103D02*
X10819158Y-13741579D01*
X10819158Y-13741579D02*
X10828682Y-13722531D01*
X10828682Y-13722531D02*
X10838206Y-13713008D01*
X10838206Y-13713008D02*
X10857253Y-13703484D01*
X10857253Y-13703484D02*
X10895349Y-13703484D01*
X10895349Y-13703484D02*
X10914396Y-13713008D01*
X10914396Y-13713008D02*
X10923920Y-13722531D01*
X10923920Y-13722531D02*
X10933444Y-13741579D01*
X10933444Y-13741579D02*
X10933444Y-13751103D01*
X10933444Y-13751103D02*
X10923920Y-13770150D01*
X10923920Y-13770150D02*
X10914396Y-13779674D01*
X10914396Y-13779674D02*
X10895349Y-13789198D01*
X10895349Y-13789198D02*
X10857253Y-13789198D01*
X10857253Y-13789198D02*
X10838206Y-13798722D01*
X10838206Y-13798722D02*
X10828682Y-13808246D01*
X10828682Y-13808246D02*
X10819158Y-13827293D01*
X10819158Y-13827293D02*
X10819158Y-13865388D01*
X10819158Y-13865388D02*
X10828682Y-13884436D01*
X10828682Y-13884436D02*
X10838206Y-13893960D01*
X10838206Y-13893960D02*
X10857253Y-13903484D01*
X10857253Y-13903484D02*
X10895349Y-13903484D01*
X10895349Y-13903484D02*
X10914396Y-13893960D01*
X10914396Y-13893960D02*
X10923920Y-13884436D01*
X10923920Y-13884436D02*
X10933444Y-13865388D01*
X10933444Y-13865388D02*
X10933444Y-13827293D01*
X10933444Y-13827293D02*
X10923920Y-13808246D01*
X10923920Y-13808246D02*
X10914396Y-13798722D01*
X10914396Y-13798722D02*
X10895349Y-13789198D01*
X11009634Y-13703484D02*
X11009634Y-13741579D01*
X11085825Y-13703484D02*
X11085825Y-13741579D01*
X11381063Y-13979674D02*
X11371539Y-13970150D01*
X11371539Y-13970150D02*
X11352491Y-13941579D01*
X11352491Y-13941579D02*
X11342968Y-13922531D01*
X11342968Y-13922531D02*
X11333444Y-13893960D01*
X11333444Y-13893960D02*
X11323920Y-13846341D01*
X11323920Y-13846341D02*
X11323920Y-13808246D01*
X11323920Y-13808246D02*
X11333444Y-13760627D01*
X11333444Y-13760627D02*
X11342968Y-13732055D01*
X11342968Y-13732055D02*
X11352491Y-13713008D01*
X11352491Y-13713008D02*
X11371539Y-13684436D01*
X11371539Y-13684436D02*
X11381063Y-13674912D01*
X11552491Y-13703484D02*
X11457253Y-13703484D01*
X11457253Y-13703484D02*
X11447729Y-13798722D01*
X11447729Y-13798722D02*
X11457253Y-13789198D01*
X11457253Y-13789198D02*
X11476301Y-13779674D01*
X11476301Y-13779674D02*
X11523920Y-13779674D01*
X11523920Y-13779674D02*
X11542968Y-13789198D01*
X11542968Y-13789198D02*
X11552491Y-13798722D01*
X11552491Y-13798722D02*
X11562015Y-13817769D01*
X11562015Y-13817769D02*
X11562015Y-13865388D01*
X11562015Y-13865388D02*
X11552491Y-13884436D01*
X11552491Y-13884436D02*
X11542968Y-13893960D01*
X11542968Y-13893960D02*
X11523920Y-13903484D01*
X11523920Y-13903484D02*
X11476301Y-13903484D01*
X11476301Y-13903484D02*
X11457253Y-13893960D01*
X11457253Y-13893960D02*
X11447729Y-13884436D01*
X11638206Y-13722531D02*
X11647729Y-13713008D01*
X11647729Y-13713008D02*
X11666777Y-13703484D01*
X11666777Y-13703484D02*
X11714396Y-13703484D01*
X11714396Y-13703484D02*
X11733444Y-13713008D01*
X11733444Y-13713008D02*
X11742968Y-13722531D01*
X11742968Y-13722531D02*
X11752491Y-13741579D01*
X11752491Y-13741579D02*
X11752491Y-13760627D01*
X11752491Y-13760627D02*
X11742968Y-13789198D01*
X11742968Y-13789198D02*
X11628682Y-13903484D01*
X11628682Y-13903484D02*
X11752491Y-13903484D01*
X11990587Y-13903484D02*
X11990587Y-13703484D01*
X12076301Y-13903484D02*
X12076301Y-13798722D01*
X12076301Y-13798722D02*
X12066777Y-13779674D01*
X12066777Y-13779674D02*
X12047730Y-13770150D01*
X12047730Y-13770150D02*
X12019158Y-13770150D01*
X12019158Y-13770150D02*
X12000110Y-13779674D01*
X12000110Y-13779674D02*
X11990587Y-13789198D01*
X12200110Y-13903484D02*
X12181063Y-13893960D01*
X12181063Y-13893960D02*
X12171539Y-13884436D01*
X12171539Y-13884436D02*
X12162015Y-13865388D01*
X12162015Y-13865388D02*
X12162015Y-13808246D01*
X12162015Y-13808246D02*
X12171539Y-13789198D01*
X12171539Y-13789198D02*
X12181063Y-13779674D01*
X12181063Y-13779674D02*
X12200110Y-13770150D01*
X12200110Y-13770150D02*
X12228682Y-13770150D01*
X12228682Y-13770150D02*
X12247730Y-13779674D01*
X12247730Y-13779674D02*
X12257253Y-13789198D01*
X12257253Y-13789198D02*
X12266777Y-13808246D01*
X12266777Y-13808246D02*
X12266777Y-13865388D01*
X12266777Y-13865388D02*
X12257253Y-13884436D01*
X12257253Y-13884436D02*
X12247730Y-13893960D01*
X12247730Y-13893960D02*
X12228682Y-13903484D01*
X12228682Y-13903484D02*
X12200110Y-13903484D01*
X12381063Y-13903484D02*
X12362015Y-13893960D01*
X12362015Y-13893960D02*
X12352491Y-13874912D01*
X12352491Y-13874912D02*
X12352491Y-13703484D01*
X12533444Y-13893960D02*
X12514396Y-13903484D01*
X12514396Y-13903484D02*
X12476301Y-13903484D01*
X12476301Y-13903484D02*
X12457253Y-13893960D01*
X12457253Y-13893960D02*
X12447730Y-13874912D01*
X12447730Y-13874912D02*
X12447730Y-13798722D01*
X12447730Y-13798722D02*
X12457253Y-13779674D01*
X12457253Y-13779674D02*
X12476301Y-13770150D01*
X12476301Y-13770150D02*
X12514396Y-13770150D01*
X12514396Y-13770150D02*
X12533444Y-13779674D01*
X12533444Y-13779674D02*
X12542968Y-13798722D01*
X12542968Y-13798722D02*
X12542968Y-13817769D01*
X12542968Y-13817769D02*
X12447730Y-13836817D01*
X12619158Y-13893960D02*
X12638206Y-13903484D01*
X12638206Y-13903484D02*
X12676301Y-13903484D01*
X12676301Y-13903484D02*
X12695349Y-13893960D01*
X12695349Y-13893960D02*
X12704872Y-13874912D01*
X12704872Y-13874912D02*
X12704872Y-13865388D01*
X12704872Y-13865388D02*
X12695349Y-13846341D01*
X12695349Y-13846341D02*
X12676301Y-13836817D01*
X12676301Y-13836817D02*
X12647730Y-13836817D01*
X12647730Y-13836817D02*
X12628682Y-13827293D01*
X12628682Y-13827293D02*
X12619158Y-13808246D01*
X12619158Y-13808246D02*
X12619158Y-13798722D01*
X12619158Y-13798722D02*
X12628682Y-13779674D01*
X12628682Y-13779674D02*
X12647730Y-13770150D01*
X12647730Y-13770150D02*
X12676301Y-13770150D01*
X12676301Y-13770150D02*
X12695349Y-13779674D01*
X12771539Y-13979674D02*
X12781063Y-13970150D01*
X12781063Y-13970150D02*
X12800111Y-13941579D01*
X12800111Y-13941579D02*
X12809634Y-13922531D01*
X12809634Y-13922531D02*
X12819158Y-13893960D01*
X12819158Y-13893960D02*
X12828682Y-13846341D01*
X12828682Y-13846341D02*
X12828682Y-13808246D01*
X12828682Y-13808246D02*
X12819158Y-13760627D01*
X12819158Y-13760627D02*
X12809634Y-13732055D01*
X12809634Y-13732055D02*
X12800111Y-13713008D01*
X12800111Y-13713008D02*
X12781063Y-13684436D01*
X12781063Y-13684436D02*
X12771539Y-13674912D01*
D12*
X7806000Y-14076000D02*
G75*
G02*
X7746000Y-14076000I-30000J0D01*
G01*
X7746000Y-14076000D02*
G75*
G02*
X7806000Y-14076000I30000J0D01*
G01*
D11*
X8104872Y-13967484D02*
X8123920Y-13967484D01*
X8123920Y-13967484D02*
X8142967Y-13977008D01*
X8142967Y-13977008D02*
X8152491Y-13986531D01*
X8152491Y-13986531D02*
X8162015Y-14005579D01*
X8162015Y-14005579D02*
X8171539Y-14043674D01*
X8171539Y-14043674D02*
X8171539Y-14091293D01*
X8171539Y-14091293D02*
X8162015Y-14129388D01*
X8162015Y-14129388D02*
X8152491Y-14148436D01*
X8152491Y-14148436D02*
X8142967Y-14157960D01*
X8142967Y-14157960D02*
X8123920Y-14167484D01*
X8123920Y-14167484D02*
X8104872Y-14167484D01*
X8104872Y-14167484D02*
X8085824Y-14157960D01*
X8085824Y-14157960D02*
X8076301Y-14148436D01*
X8076301Y-14148436D02*
X8066777Y-14129388D01*
X8066777Y-14129388D02*
X8057253Y-14091293D01*
X8057253Y-14091293D02*
X8057253Y-14043674D01*
X8057253Y-14043674D02*
X8066777Y-14005579D01*
X8066777Y-14005579D02*
X8076301Y-13986531D01*
X8076301Y-13986531D02*
X8085824Y-13977008D01*
X8085824Y-13977008D02*
X8104872Y-13967484D01*
X8257253Y-14148436D02*
X8266777Y-14157960D01*
X8266777Y-14157960D02*
X8257253Y-14167484D01*
X8257253Y-14167484D02*
X8247729Y-14157960D01*
X8247729Y-14157960D02*
X8257253Y-14148436D01*
X8257253Y-14148436D02*
X8257253Y-14167484D01*
X8438205Y-13967484D02*
X8400110Y-13967484D01*
X8400110Y-13967484D02*
X8381062Y-13977008D01*
X8381062Y-13977008D02*
X8371539Y-13986531D01*
X8371539Y-13986531D02*
X8352491Y-14015103D01*
X8352491Y-14015103D02*
X8342967Y-14053198D01*
X8342967Y-14053198D02*
X8342967Y-14129388D01*
X8342967Y-14129388D02*
X8352491Y-14148436D01*
X8352491Y-14148436D02*
X8362015Y-14157960D01*
X8362015Y-14157960D02*
X8381062Y-14167484D01*
X8381062Y-14167484D02*
X8419158Y-14167484D01*
X8419158Y-14167484D02*
X8438205Y-14157960D01*
X8438205Y-14157960D02*
X8447729Y-14148436D01*
X8447729Y-14148436D02*
X8457253Y-14129388D01*
X8457253Y-14129388D02*
X8457253Y-14081769D01*
X8457253Y-14081769D02*
X8447729Y-14062722D01*
X8447729Y-14062722D02*
X8438205Y-14053198D01*
X8438205Y-14053198D02*
X8419158Y-14043674D01*
X8419158Y-14043674D02*
X8381062Y-14043674D01*
X8381062Y-14043674D02*
X8362015Y-14053198D01*
X8362015Y-14053198D02*
X8352491Y-14062722D01*
X8352491Y-14062722D02*
X8342967Y-14081769D01*
X8581063Y-13967484D02*
X8600110Y-13967484D01*
X8600110Y-13967484D02*
X8619158Y-13977008D01*
X8619158Y-13977008D02*
X8628682Y-13986531D01*
X8628682Y-13986531D02*
X8638205Y-14005579D01*
X8638205Y-14005579D02*
X8647729Y-14043674D01*
X8647729Y-14043674D02*
X8647729Y-14091293D01*
X8647729Y-14091293D02*
X8638205Y-14129388D01*
X8638205Y-14129388D02*
X8628682Y-14148436D01*
X8628682Y-14148436D02*
X8619158Y-14157960D01*
X8619158Y-14157960D02*
X8600110Y-14167484D01*
X8600110Y-14167484D02*
X8581063Y-14167484D01*
X8581063Y-14167484D02*
X8562015Y-14157960D01*
X8562015Y-14157960D02*
X8552491Y-14148436D01*
X8552491Y-14148436D02*
X8542967Y-14129388D01*
X8542967Y-14129388D02*
X8533444Y-14091293D01*
X8533444Y-14091293D02*
X8533444Y-14043674D01*
X8533444Y-14043674D02*
X8542967Y-14005579D01*
X8542967Y-14005579D02*
X8552491Y-13986531D01*
X8552491Y-13986531D02*
X8562015Y-13977008D01*
X8562015Y-13977008D02*
X8581063Y-13967484D01*
X8771539Y-13967484D02*
X8790586Y-13967484D01*
X8790586Y-13967484D02*
X8809634Y-13977008D01*
X8809634Y-13977008D02*
X8819158Y-13986531D01*
X8819158Y-13986531D02*
X8828682Y-14005579D01*
X8828682Y-14005579D02*
X8838205Y-14043674D01*
X8838205Y-14043674D02*
X8838205Y-14091293D01*
X8838205Y-14091293D02*
X8828682Y-14129388D01*
X8828682Y-14129388D02*
X8819158Y-14148436D01*
X8819158Y-14148436D02*
X8809634Y-14157960D01*
X8809634Y-14157960D02*
X8790586Y-14167484D01*
X8790586Y-14167484D02*
X8771539Y-14167484D01*
X8771539Y-14167484D02*
X8752491Y-14157960D01*
X8752491Y-14157960D02*
X8742967Y-14148436D01*
X8742967Y-14148436D02*
X8733444Y-14129388D01*
X8733444Y-14129388D02*
X8723920Y-14091293D01*
X8723920Y-14091293D02*
X8723920Y-14043674D01*
X8723920Y-14043674D02*
X8733444Y-14005579D01*
X8733444Y-14005579D02*
X8742967Y-13986531D01*
X8742967Y-13986531D02*
X8752491Y-13977008D01*
X8752491Y-13977008D02*
X8771539Y-13967484D01*
X8923920Y-14167484D02*
X8923920Y-14034150D01*
X8923920Y-14053198D02*
X8933444Y-14043674D01*
X8933444Y-14043674D02*
X8952491Y-14034150D01*
X8952491Y-14034150D02*
X8981063Y-14034150D01*
X8981063Y-14034150D02*
X9000110Y-14043674D01*
X9000110Y-14043674D02*
X9009634Y-14062722D01*
X9009634Y-14062722D02*
X9009634Y-14167484D01*
X9009634Y-14062722D02*
X9019158Y-14043674D01*
X9019158Y-14043674D02*
X9038205Y-14034150D01*
X9038205Y-14034150D02*
X9066777Y-14034150D01*
X9066777Y-14034150D02*
X9085825Y-14043674D01*
X9085825Y-14043674D02*
X9095348Y-14062722D01*
X9095348Y-14062722D02*
X9095348Y-14167484D01*
X9190586Y-14167484D02*
X9190586Y-14034150D01*
X9190586Y-14053198D02*
X9200110Y-14043674D01*
X9200110Y-14043674D02*
X9219158Y-14034150D01*
X9219158Y-14034150D02*
X9247729Y-14034150D01*
X9247729Y-14034150D02*
X9266777Y-14043674D01*
X9266777Y-14043674D02*
X9276301Y-14062722D01*
X9276301Y-14062722D02*
X9276301Y-14167484D01*
X9276301Y-14062722D02*
X9285825Y-14043674D01*
X9285825Y-14043674D02*
X9304872Y-14034150D01*
X9304872Y-14034150D02*
X9333444Y-14034150D01*
X9333444Y-14034150D02*
X9352491Y-14043674D01*
X9352491Y-14043674D02*
X9362015Y-14062722D01*
X9362015Y-14062722D02*
X9362015Y-14167484D01*
X9752491Y-13957960D02*
X9581063Y-14215103D01*
X10009634Y-13967484D02*
X10028682Y-13967484D01*
X10028682Y-13967484D02*
X10047729Y-13977008D01*
X10047729Y-13977008D02*
X10057253Y-13986531D01*
X10057253Y-13986531D02*
X10066777Y-14005579D01*
X10066777Y-14005579D02*
X10076301Y-14043674D01*
X10076301Y-14043674D02*
X10076301Y-14091293D01*
X10076301Y-14091293D02*
X10066777Y-14129388D01*
X10066777Y-14129388D02*
X10057253Y-14148436D01*
X10057253Y-14148436D02*
X10047729Y-14157960D01*
X10047729Y-14157960D02*
X10028682Y-14167484D01*
X10028682Y-14167484D02*
X10009634Y-14167484D01*
X10009634Y-14167484D02*
X9990587Y-14157960D01*
X9990587Y-14157960D02*
X9981063Y-14148436D01*
X9981063Y-14148436D02*
X9971539Y-14129388D01*
X9971539Y-14129388D02*
X9962015Y-14091293D01*
X9962015Y-14091293D02*
X9962015Y-14043674D01*
X9962015Y-14043674D02*
X9971539Y-14005579D01*
X9971539Y-14005579D02*
X9981063Y-13986531D01*
X9981063Y-13986531D02*
X9990587Y-13977008D01*
X9990587Y-13977008D02*
X10009634Y-13967484D01*
X10162015Y-14148436D02*
X10171539Y-14157960D01*
X10171539Y-14157960D02*
X10162015Y-14167484D01*
X10162015Y-14167484D02*
X10152491Y-14157960D01*
X10152491Y-14157960D02*
X10162015Y-14148436D01*
X10162015Y-14148436D02*
X10162015Y-14167484D01*
X10295348Y-13967484D02*
X10314396Y-13967484D01*
X10314396Y-13967484D02*
X10333444Y-13977008D01*
X10333444Y-13977008D02*
X10342968Y-13986531D01*
X10342968Y-13986531D02*
X10352491Y-14005579D01*
X10352491Y-14005579D02*
X10362015Y-14043674D01*
X10362015Y-14043674D02*
X10362015Y-14091293D01*
X10362015Y-14091293D02*
X10352491Y-14129388D01*
X10352491Y-14129388D02*
X10342968Y-14148436D01*
X10342968Y-14148436D02*
X10333444Y-14157960D01*
X10333444Y-14157960D02*
X10314396Y-14167484D01*
X10314396Y-14167484D02*
X10295348Y-14167484D01*
X10295348Y-14167484D02*
X10276301Y-14157960D01*
X10276301Y-14157960D02*
X10266777Y-14148436D01*
X10266777Y-14148436D02*
X10257253Y-14129388D01*
X10257253Y-14129388D02*
X10247729Y-14091293D01*
X10247729Y-14091293D02*
X10247729Y-14043674D01*
X10247729Y-14043674D02*
X10257253Y-14005579D01*
X10257253Y-14005579D02*
X10266777Y-13986531D01*
X10266777Y-13986531D02*
X10276301Y-13977008D01*
X10276301Y-13977008D02*
X10295348Y-13967484D01*
X10438206Y-13986531D02*
X10447729Y-13977008D01*
X10447729Y-13977008D02*
X10466777Y-13967484D01*
X10466777Y-13967484D02*
X10514396Y-13967484D01*
X10514396Y-13967484D02*
X10533444Y-13977008D01*
X10533444Y-13977008D02*
X10542968Y-13986531D01*
X10542968Y-13986531D02*
X10552491Y-14005579D01*
X10552491Y-14005579D02*
X10552491Y-14024627D01*
X10552491Y-14024627D02*
X10542968Y-14053198D01*
X10542968Y-14053198D02*
X10428682Y-14167484D01*
X10428682Y-14167484D02*
X10552491Y-14167484D01*
X10619158Y-13967484D02*
X10742968Y-13967484D01*
X10742968Y-13967484D02*
X10676301Y-14043674D01*
X10676301Y-14043674D02*
X10704872Y-14043674D01*
X10704872Y-14043674D02*
X10723920Y-14053198D01*
X10723920Y-14053198D02*
X10733444Y-14062722D01*
X10733444Y-14062722D02*
X10742968Y-14081769D01*
X10742968Y-14081769D02*
X10742968Y-14129388D01*
X10742968Y-14129388D02*
X10733444Y-14148436D01*
X10733444Y-14148436D02*
X10723920Y-14157960D01*
X10723920Y-14157960D02*
X10704872Y-14167484D01*
X10704872Y-14167484D02*
X10647729Y-14167484D01*
X10647729Y-14167484D02*
X10628682Y-14157960D01*
X10628682Y-14157960D02*
X10619158Y-14148436D01*
X10914396Y-13967484D02*
X10876301Y-13967484D01*
X10876301Y-13967484D02*
X10857253Y-13977008D01*
X10857253Y-13977008D02*
X10847729Y-13986531D01*
X10847729Y-13986531D02*
X10828682Y-14015103D01*
X10828682Y-14015103D02*
X10819158Y-14053198D01*
X10819158Y-14053198D02*
X10819158Y-14129388D01*
X10819158Y-14129388D02*
X10828682Y-14148436D01*
X10828682Y-14148436D02*
X10838206Y-14157960D01*
X10838206Y-14157960D02*
X10857253Y-14167484D01*
X10857253Y-14167484D02*
X10895349Y-14167484D01*
X10895349Y-14167484D02*
X10914396Y-14157960D01*
X10914396Y-14157960D02*
X10923920Y-14148436D01*
X10923920Y-14148436D02*
X10933444Y-14129388D01*
X10933444Y-14129388D02*
X10933444Y-14081769D01*
X10933444Y-14081769D02*
X10923920Y-14062722D01*
X10923920Y-14062722D02*
X10914396Y-14053198D01*
X10914396Y-14053198D02*
X10895349Y-14043674D01*
X10895349Y-14043674D02*
X10857253Y-14043674D01*
X10857253Y-14043674D02*
X10838206Y-14053198D01*
X10838206Y-14053198D02*
X10828682Y-14062722D01*
X10828682Y-14062722D02*
X10819158Y-14081769D01*
X11009634Y-13967484D02*
X11009634Y-14005579D01*
X11085825Y-13967484D02*
X11085825Y-14005579D01*
X11381063Y-14243674D02*
X11371539Y-14234150D01*
X11371539Y-14234150D02*
X11352491Y-14205579D01*
X11352491Y-14205579D02*
X11342968Y-14186531D01*
X11342968Y-14186531D02*
X11333444Y-14157960D01*
X11333444Y-14157960D02*
X11323920Y-14110341D01*
X11323920Y-14110341D02*
X11323920Y-14072246D01*
X11323920Y-14072246D02*
X11333444Y-14024627D01*
X11333444Y-14024627D02*
X11342968Y-13996055D01*
X11342968Y-13996055D02*
X11352491Y-13977008D01*
X11352491Y-13977008D02*
X11371539Y-13948436D01*
X11371539Y-13948436D02*
X11381063Y-13938912D01*
X11495348Y-13967484D02*
X11514396Y-13967484D01*
X11514396Y-13967484D02*
X11533444Y-13977008D01*
X11533444Y-13977008D02*
X11542968Y-13986531D01*
X11542968Y-13986531D02*
X11552491Y-14005579D01*
X11552491Y-14005579D02*
X11562015Y-14043674D01*
X11562015Y-14043674D02*
X11562015Y-14091293D01*
X11562015Y-14091293D02*
X11552491Y-14129388D01*
X11552491Y-14129388D02*
X11542968Y-14148436D01*
X11542968Y-14148436D02*
X11533444Y-14157960D01*
X11533444Y-14157960D02*
X11514396Y-14167484D01*
X11514396Y-14167484D02*
X11495348Y-14167484D01*
X11495348Y-14167484D02*
X11476301Y-14157960D01*
X11476301Y-14157960D02*
X11466777Y-14148436D01*
X11466777Y-14148436D02*
X11457253Y-14129388D01*
X11457253Y-14129388D02*
X11447729Y-14091293D01*
X11447729Y-14091293D02*
X11447729Y-14043674D01*
X11447729Y-14043674D02*
X11457253Y-14005579D01*
X11457253Y-14005579D02*
X11466777Y-13986531D01*
X11466777Y-13986531D02*
X11476301Y-13977008D01*
X11476301Y-13977008D02*
X11495348Y-13967484D01*
X11800110Y-14167484D02*
X11800110Y-13967484D01*
X11885825Y-14167484D02*
X11885825Y-14062722D01*
X11885825Y-14062722D02*
X11876301Y-14043674D01*
X11876301Y-14043674D02*
X11857253Y-14034150D01*
X11857253Y-14034150D02*
X11828682Y-14034150D01*
X11828682Y-14034150D02*
X11809634Y-14043674D01*
X11809634Y-14043674D02*
X11800110Y-14053198D01*
X12009634Y-14167484D02*
X11990587Y-14157960D01*
X11990587Y-14157960D02*
X11981063Y-14148436D01*
X11981063Y-14148436D02*
X11971539Y-14129388D01*
X11971539Y-14129388D02*
X11971539Y-14072246D01*
X11971539Y-14072246D02*
X11981063Y-14053198D01*
X11981063Y-14053198D02*
X11990587Y-14043674D01*
X11990587Y-14043674D02*
X12009634Y-14034150D01*
X12009634Y-14034150D02*
X12038206Y-14034150D01*
X12038206Y-14034150D02*
X12057253Y-14043674D01*
X12057253Y-14043674D02*
X12066777Y-14053198D01*
X12066777Y-14053198D02*
X12076301Y-14072246D01*
X12076301Y-14072246D02*
X12076301Y-14129388D01*
X12076301Y-14129388D02*
X12066777Y-14148436D01*
X12066777Y-14148436D02*
X12057253Y-14157960D01*
X12057253Y-14157960D02*
X12038206Y-14167484D01*
X12038206Y-14167484D02*
X12009634Y-14167484D01*
X12190587Y-14167484D02*
X12171539Y-14157960D01*
X12171539Y-14157960D02*
X12162015Y-14138912D01*
X12162015Y-14138912D02*
X12162015Y-13967484D01*
X12342968Y-14157960D02*
X12323920Y-14167484D01*
X12323920Y-14167484D02*
X12285825Y-14167484D01*
X12285825Y-14167484D02*
X12266777Y-14157960D01*
X12266777Y-14157960D02*
X12257253Y-14138912D01*
X12257253Y-14138912D02*
X12257253Y-14062722D01*
X12257253Y-14062722D02*
X12266777Y-14043674D01*
X12266777Y-14043674D02*
X12285825Y-14034150D01*
X12285825Y-14034150D02*
X12323920Y-14034150D01*
X12323920Y-14034150D02*
X12342968Y-14043674D01*
X12342968Y-14043674D02*
X12352491Y-14062722D01*
X12352491Y-14062722D02*
X12352491Y-14081769D01*
X12352491Y-14081769D02*
X12257253Y-14100817D01*
X12428682Y-14157960D02*
X12447730Y-14167484D01*
X12447730Y-14167484D02*
X12485825Y-14167484D01*
X12485825Y-14167484D02*
X12504872Y-14157960D01*
X12504872Y-14157960D02*
X12514396Y-14138912D01*
X12514396Y-14138912D02*
X12514396Y-14129388D01*
X12514396Y-14129388D02*
X12504872Y-14110341D01*
X12504872Y-14110341D02*
X12485825Y-14100817D01*
X12485825Y-14100817D02*
X12457253Y-14100817D01*
X12457253Y-14100817D02*
X12438206Y-14091293D01*
X12438206Y-14091293D02*
X12428682Y-14072246D01*
X12428682Y-14072246D02*
X12428682Y-14062722D01*
X12428682Y-14062722D02*
X12438206Y-14043674D01*
X12438206Y-14043674D02*
X12457253Y-14034150D01*
X12457253Y-14034150D02*
X12485825Y-14034150D01*
X12485825Y-14034150D02*
X12504872Y-14043674D01*
X12752492Y-14091293D02*
X12904873Y-14091293D01*
X12828682Y-14167484D02*
X12828682Y-14015103D01*
X13142968Y-13986531D02*
X13152492Y-13977008D01*
X13152492Y-13977008D02*
X13171539Y-13967484D01*
X13171539Y-13967484D02*
X13219158Y-13967484D01*
X13219158Y-13967484D02*
X13238206Y-13977008D01*
X13238206Y-13977008D02*
X13247730Y-13986531D01*
X13247730Y-13986531D02*
X13257253Y-14005579D01*
X13257253Y-14005579D02*
X13257253Y-14024627D01*
X13257253Y-14024627D02*
X13247730Y-14053198D01*
X13247730Y-14053198D02*
X13133444Y-14167484D01*
X13133444Y-14167484D02*
X13257253Y-14167484D01*
X13485825Y-14157960D02*
X13504873Y-14167484D01*
X13504873Y-14167484D02*
X13542968Y-14167484D01*
X13542968Y-14167484D02*
X13562015Y-14157960D01*
X13562015Y-14157960D02*
X13571539Y-14138912D01*
X13571539Y-14138912D02*
X13571539Y-14129388D01*
X13571539Y-14129388D02*
X13562015Y-14110341D01*
X13562015Y-14110341D02*
X13542968Y-14100817D01*
X13542968Y-14100817D02*
X13514396Y-14100817D01*
X13514396Y-14100817D02*
X13495349Y-14091293D01*
X13495349Y-14091293D02*
X13485825Y-14072246D01*
X13485825Y-14072246D02*
X13485825Y-14062722D01*
X13485825Y-14062722D02*
X13495349Y-14043674D01*
X13495349Y-14043674D02*
X13514396Y-14034150D01*
X13514396Y-14034150D02*
X13542968Y-14034150D01*
X13542968Y-14034150D02*
X13562015Y-14043674D01*
X13685825Y-14167484D02*
X13666777Y-14157960D01*
X13666777Y-14157960D02*
X13657254Y-14138912D01*
X13657254Y-14138912D02*
X13657254Y-13967484D01*
X13790587Y-14167484D02*
X13771539Y-14157960D01*
X13771539Y-14157960D02*
X13762015Y-14148436D01*
X13762015Y-14148436D02*
X13752492Y-14129388D01*
X13752492Y-14129388D02*
X13752492Y-14072246D01*
X13752492Y-14072246D02*
X13762015Y-14053198D01*
X13762015Y-14053198D02*
X13771539Y-14043674D01*
X13771539Y-14043674D02*
X13790587Y-14034150D01*
X13790587Y-14034150D02*
X13819158Y-14034150D01*
X13819158Y-14034150D02*
X13838206Y-14043674D01*
X13838206Y-14043674D02*
X13847730Y-14053198D01*
X13847730Y-14053198D02*
X13857254Y-14072246D01*
X13857254Y-14072246D02*
X13857254Y-14129388D01*
X13857254Y-14129388D02*
X13847730Y-14148436D01*
X13847730Y-14148436D02*
X13838206Y-14157960D01*
X13838206Y-14157960D02*
X13819158Y-14167484D01*
X13819158Y-14167484D02*
X13790587Y-14167484D01*
X13914396Y-14034150D02*
X13990587Y-14034150D01*
X13942968Y-13967484D02*
X13942968Y-14138912D01*
X13942968Y-14138912D02*
X13952492Y-14157960D01*
X13952492Y-14157960D02*
X13971539Y-14167484D01*
X13971539Y-14167484D02*
X13990587Y-14167484D01*
X14047730Y-14157960D02*
X14066777Y-14167484D01*
X14066777Y-14167484D02*
X14104873Y-14167484D01*
X14104873Y-14167484D02*
X14123920Y-14157960D01*
X14123920Y-14157960D02*
X14133444Y-14138912D01*
X14133444Y-14138912D02*
X14133444Y-14129388D01*
X14133444Y-14129388D02*
X14123920Y-14110341D01*
X14123920Y-14110341D02*
X14104873Y-14100817D01*
X14104873Y-14100817D02*
X14076301Y-14100817D01*
X14076301Y-14100817D02*
X14057254Y-14091293D01*
X14057254Y-14091293D02*
X14047730Y-14072246D01*
X14047730Y-14072246D02*
X14047730Y-14062722D01*
X14047730Y-14062722D02*
X14057254Y-14043674D01*
X14057254Y-14043674D02*
X14076301Y-14034150D01*
X14076301Y-14034150D02*
X14104873Y-14034150D01*
X14104873Y-14034150D02*
X14123920Y-14043674D01*
X14200111Y-14243674D02*
X14209635Y-14234150D01*
X14209635Y-14234150D02*
X14228682Y-14205579D01*
X14228682Y-14205579D02*
X14238206Y-14186531D01*
X14238206Y-14186531D02*
X14247730Y-14157960D01*
X14247730Y-14157960D02*
X14257254Y-14110341D01*
X14257254Y-14110341D02*
X14257254Y-14072246D01*
X14257254Y-14072246D02*
X14247730Y-14024627D01*
X14247730Y-14024627D02*
X14238206Y-13996055D01*
X14238206Y-13996055D02*
X14228682Y-13977008D01*
X14228682Y-13977008D02*
X14209635Y-13948436D01*
X14209635Y-13948436D02*
X14200111Y-13938912D01*
D12*
X7766000Y-14300000D02*
X7766000Y-14380000D01*
X7726000Y-14340000D02*
X7806000Y-14340000D01*
D11*
X8104872Y-14231484D02*
X8123920Y-14231484D01*
X8123920Y-14231484D02*
X8142967Y-14241008D01*
X8142967Y-14241008D02*
X8152491Y-14250531D01*
X8152491Y-14250531D02*
X8162015Y-14269579D01*
X8162015Y-14269579D02*
X8171539Y-14307674D01*
X8171539Y-14307674D02*
X8171539Y-14355293D01*
X8171539Y-14355293D02*
X8162015Y-14393388D01*
X8162015Y-14393388D02*
X8152491Y-14412436D01*
X8152491Y-14412436D02*
X8142967Y-14421960D01*
X8142967Y-14421960D02*
X8123920Y-14431484D01*
X8123920Y-14431484D02*
X8104872Y-14431484D01*
X8104872Y-14431484D02*
X8085824Y-14421960D01*
X8085824Y-14421960D02*
X8076301Y-14412436D01*
X8076301Y-14412436D02*
X8066777Y-14393388D01*
X8066777Y-14393388D02*
X8057253Y-14355293D01*
X8057253Y-14355293D02*
X8057253Y-14307674D01*
X8057253Y-14307674D02*
X8066777Y-14269579D01*
X8066777Y-14269579D02*
X8076301Y-14250531D01*
X8076301Y-14250531D02*
X8085824Y-14241008D01*
X8085824Y-14241008D02*
X8104872Y-14231484D01*
X8257253Y-14412436D02*
X8266777Y-14421960D01*
X8266777Y-14421960D02*
X8257253Y-14431484D01*
X8257253Y-14431484D02*
X8247729Y-14421960D01*
X8247729Y-14421960D02*
X8257253Y-14412436D01*
X8257253Y-14412436D02*
X8257253Y-14431484D01*
X8381062Y-14317198D02*
X8362015Y-14307674D01*
X8362015Y-14307674D02*
X8352491Y-14298150D01*
X8352491Y-14298150D02*
X8342967Y-14279103D01*
X8342967Y-14279103D02*
X8342967Y-14269579D01*
X8342967Y-14269579D02*
X8352491Y-14250531D01*
X8352491Y-14250531D02*
X8362015Y-14241008D01*
X8362015Y-14241008D02*
X8381062Y-14231484D01*
X8381062Y-14231484D02*
X8419158Y-14231484D01*
X8419158Y-14231484D02*
X8438205Y-14241008D01*
X8438205Y-14241008D02*
X8447729Y-14250531D01*
X8447729Y-14250531D02*
X8457253Y-14269579D01*
X8457253Y-14269579D02*
X8457253Y-14279103D01*
X8457253Y-14279103D02*
X8447729Y-14298150D01*
X8447729Y-14298150D02*
X8438205Y-14307674D01*
X8438205Y-14307674D02*
X8419158Y-14317198D01*
X8419158Y-14317198D02*
X8381062Y-14317198D01*
X8381062Y-14317198D02*
X8362015Y-14326722D01*
X8362015Y-14326722D02*
X8352491Y-14336246D01*
X8352491Y-14336246D02*
X8342967Y-14355293D01*
X8342967Y-14355293D02*
X8342967Y-14393388D01*
X8342967Y-14393388D02*
X8352491Y-14412436D01*
X8352491Y-14412436D02*
X8362015Y-14421960D01*
X8362015Y-14421960D02*
X8381062Y-14431484D01*
X8381062Y-14431484D02*
X8419158Y-14431484D01*
X8419158Y-14431484D02*
X8438205Y-14421960D01*
X8438205Y-14421960D02*
X8447729Y-14412436D01*
X8447729Y-14412436D02*
X8457253Y-14393388D01*
X8457253Y-14393388D02*
X8457253Y-14355293D01*
X8457253Y-14355293D02*
X8447729Y-14336246D01*
X8447729Y-14336246D02*
X8438205Y-14326722D01*
X8438205Y-14326722D02*
X8419158Y-14317198D01*
X8581063Y-14231484D02*
X8600110Y-14231484D01*
X8600110Y-14231484D02*
X8619158Y-14241008D01*
X8619158Y-14241008D02*
X8628682Y-14250531D01*
X8628682Y-14250531D02*
X8638205Y-14269579D01*
X8638205Y-14269579D02*
X8647729Y-14307674D01*
X8647729Y-14307674D02*
X8647729Y-14355293D01*
X8647729Y-14355293D02*
X8638205Y-14393388D01*
X8638205Y-14393388D02*
X8628682Y-14412436D01*
X8628682Y-14412436D02*
X8619158Y-14421960D01*
X8619158Y-14421960D02*
X8600110Y-14431484D01*
X8600110Y-14431484D02*
X8581063Y-14431484D01*
X8581063Y-14431484D02*
X8562015Y-14421960D01*
X8562015Y-14421960D02*
X8552491Y-14412436D01*
X8552491Y-14412436D02*
X8542967Y-14393388D01*
X8542967Y-14393388D02*
X8533444Y-14355293D01*
X8533444Y-14355293D02*
X8533444Y-14307674D01*
X8533444Y-14307674D02*
X8542967Y-14269579D01*
X8542967Y-14269579D02*
X8552491Y-14250531D01*
X8552491Y-14250531D02*
X8562015Y-14241008D01*
X8562015Y-14241008D02*
X8581063Y-14231484D01*
X8771539Y-14231484D02*
X8790586Y-14231484D01*
X8790586Y-14231484D02*
X8809634Y-14241008D01*
X8809634Y-14241008D02*
X8819158Y-14250531D01*
X8819158Y-14250531D02*
X8828682Y-14269579D01*
X8828682Y-14269579D02*
X8838205Y-14307674D01*
X8838205Y-14307674D02*
X8838205Y-14355293D01*
X8838205Y-14355293D02*
X8828682Y-14393388D01*
X8828682Y-14393388D02*
X8819158Y-14412436D01*
X8819158Y-14412436D02*
X8809634Y-14421960D01*
X8809634Y-14421960D02*
X8790586Y-14431484D01*
X8790586Y-14431484D02*
X8771539Y-14431484D01*
X8771539Y-14431484D02*
X8752491Y-14421960D01*
X8752491Y-14421960D02*
X8742967Y-14412436D01*
X8742967Y-14412436D02*
X8733444Y-14393388D01*
X8733444Y-14393388D02*
X8723920Y-14355293D01*
X8723920Y-14355293D02*
X8723920Y-14307674D01*
X8723920Y-14307674D02*
X8733444Y-14269579D01*
X8733444Y-14269579D02*
X8742967Y-14250531D01*
X8742967Y-14250531D02*
X8752491Y-14241008D01*
X8752491Y-14241008D02*
X8771539Y-14231484D01*
X8923920Y-14431484D02*
X8923920Y-14298150D01*
X8923920Y-14317198D02*
X8933444Y-14307674D01*
X8933444Y-14307674D02*
X8952491Y-14298150D01*
X8952491Y-14298150D02*
X8981063Y-14298150D01*
X8981063Y-14298150D02*
X9000110Y-14307674D01*
X9000110Y-14307674D02*
X9009634Y-14326722D01*
X9009634Y-14326722D02*
X9009634Y-14431484D01*
X9009634Y-14326722D02*
X9019158Y-14307674D01*
X9019158Y-14307674D02*
X9038205Y-14298150D01*
X9038205Y-14298150D02*
X9066777Y-14298150D01*
X9066777Y-14298150D02*
X9085825Y-14307674D01*
X9085825Y-14307674D02*
X9095348Y-14326722D01*
X9095348Y-14326722D02*
X9095348Y-14431484D01*
X9190586Y-14431484D02*
X9190586Y-14298150D01*
X9190586Y-14317198D02*
X9200110Y-14307674D01*
X9200110Y-14307674D02*
X9219158Y-14298150D01*
X9219158Y-14298150D02*
X9247729Y-14298150D01*
X9247729Y-14298150D02*
X9266777Y-14307674D01*
X9266777Y-14307674D02*
X9276301Y-14326722D01*
X9276301Y-14326722D02*
X9276301Y-14431484D01*
X9276301Y-14326722D02*
X9285825Y-14307674D01*
X9285825Y-14307674D02*
X9304872Y-14298150D01*
X9304872Y-14298150D02*
X9333444Y-14298150D01*
X9333444Y-14298150D02*
X9352491Y-14307674D01*
X9352491Y-14307674D02*
X9362015Y-14326722D01*
X9362015Y-14326722D02*
X9362015Y-14431484D01*
X9752491Y-14221960D02*
X9581063Y-14479103D01*
X10009634Y-14231484D02*
X10028682Y-14231484D01*
X10028682Y-14231484D02*
X10047729Y-14241008D01*
X10047729Y-14241008D02*
X10057253Y-14250531D01*
X10057253Y-14250531D02*
X10066777Y-14269579D01*
X10066777Y-14269579D02*
X10076301Y-14307674D01*
X10076301Y-14307674D02*
X10076301Y-14355293D01*
X10076301Y-14355293D02*
X10066777Y-14393388D01*
X10066777Y-14393388D02*
X10057253Y-14412436D01*
X10057253Y-14412436D02*
X10047729Y-14421960D01*
X10047729Y-14421960D02*
X10028682Y-14431484D01*
X10028682Y-14431484D02*
X10009634Y-14431484D01*
X10009634Y-14431484D02*
X9990587Y-14421960D01*
X9990587Y-14421960D02*
X9981063Y-14412436D01*
X9981063Y-14412436D02*
X9971539Y-14393388D01*
X9971539Y-14393388D02*
X9962015Y-14355293D01*
X9962015Y-14355293D02*
X9962015Y-14307674D01*
X9962015Y-14307674D02*
X9971539Y-14269579D01*
X9971539Y-14269579D02*
X9981063Y-14250531D01*
X9981063Y-14250531D02*
X9990587Y-14241008D01*
X9990587Y-14241008D02*
X10009634Y-14231484D01*
X10162015Y-14412436D02*
X10171539Y-14421960D01*
X10171539Y-14421960D02*
X10162015Y-14431484D01*
X10162015Y-14431484D02*
X10152491Y-14421960D01*
X10152491Y-14421960D02*
X10162015Y-14412436D01*
X10162015Y-14412436D02*
X10162015Y-14431484D01*
X10295348Y-14231484D02*
X10314396Y-14231484D01*
X10314396Y-14231484D02*
X10333444Y-14241008D01*
X10333444Y-14241008D02*
X10342968Y-14250531D01*
X10342968Y-14250531D02*
X10352491Y-14269579D01*
X10352491Y-14269579D02*
X10362015Y-14307674D01*
X10362015Y-14307674D02*
X10362015Y-14355293D01*
X10362015Y-14355293D02*
X10352491Y-14393388D01*
X10352491Y-14393388D02*
X10342968Y-14412436D01*
X10342968Y-14412436D02*
X10333444Y-14421960D01*
X10333444Y-14421960D02*
X10314396Y-14431484D01*
X10314396Y-14431484D02*
X10295348Y-14431484D01*
X10295348Y-14431484D02*
X10276301Y-14421960D01*
X10276301Y-14421960D02*
X10266777Y-14412436D01*
X10266777Y-14412436D02*
X10257253Y-14393388D01*
X10257253Y-14393388D02*
X10247729Y-14355293D01*
X10247729Y-14355293D02*
X10247729Y-14307674D01*
X10247729Y-14307674D02*
X10257253Y-14269579D01*
X10257253Y-14269579D02*
X10266777Y-14250531D01*
X10266777Y-14250531D02*
X10276301Y-14241008D01*
X10276301Y-14241008D02*
X10295348Y-14231484D01*
X10428682Y-14231484D02*
X10552491Y-14231484D01*
X10552491Y-14231484D02*
X10485825Y-14307674D01*
X10485825Y-14307674D02*
X10514396Y-14307674D01*
X10514396Y-14307674D02*
X10533444Y-14317198D01*
X10533444Y-14317198D02*
X10542968Y-14326722D01*
X10542968Y-14326722D02*
X10552491Y-14345769D01*
X10552491Y-14345769D02*
X10552491Y-14393388D01*
X10552491Y-14393388D02*
X10542968Y-14412436D01*
X10542968Y-14412436D02*
X10533444Y-14421960D01*
X10533444Y-14421960D02*
X10514396Y-14431484D01*
X10514396Y-14431484D02*
X10457253Y-14431484D01*
X10457253Y-14431484D02*
X10438206Y-14421960D01*
X10438206Y-14421960D02*
X10428682Y-14412436D01*
X10742968Y-14431484D02*
X10628682Y-14431484D01*
X10685825Y-14431484D02*
X10685825Y-14231484D01*
X10685825Y-14231484D02*
X10666777Y-14260055D01*
X10666777Y-14260055D02*
X10647729Y-14279103D01*
X10647729Y-14279103D02*
X10628682Y-14288627D01*
X10923920Y-14231484D02*
X10828682Y-14231484D01*
X10828682Y-14231484D02*
X10819158Y-14326722D01*
X10819158Y-14326722D02*
X10828682Y-14317198D01*
X10828682Y-14317198D02*
X10847729Y-14307674D01*
X10847729Y-14307674D02*
X10895349Y-14307674D01*
X10895349Y-14307674D02*
X10914396Y-14317198D01*
X10914396Y-14317198D02*
X10923920Y-14326722D01*
X10923920Y-14326722D02*
X10933444Y-14345769D01*
X10933444Y-14345769D02*
X10933444Y-14393388D01*
X10933444Y-14393388D02*
X10923920Y-14412436D01*
X10923920Y-14412436D02*
X10914396Y-14421960D01*
X10914396Y-14421960D02*
X10895349Y-14431484D01*
X10895349Y-14431484D02*
X10847729Y-14431484D01*
X10847729Y-14431484D02*
X10828682Y-14421960D01*
X10828682Y-14421960D02*
X10819158Y-14412436D01*
X11009634Y-14231484D02*
X11009634Y-14269579D01*
X11085825Y-14231484D02*
X11085825Y-14269579D01*
X11381063Y-14507674D02*
X11371539Y-14498150D01*
X11371539Y-14498150D02*
X11352491Y-14469579D01*
X11352491Y-14469579D02*
X11342968Y-14450531D01*
X11342968Y-14450531D02*
X11333444Y-14421960D01*
X11333444Y-14421960D02*
X11323920Y-14374341D01*
X11323920Y-14374341D02*
X11323920Y-14336246D01*
X11323920Y-14336246D02*
X11333444Y-14288627D01*
X11333444Y-14288627D02*
X11342968Y-14260055D01*
X11342968Y-14260055D02*
X11352491Y-14241008D01*
X11352491Y-14241008D02*
X11371539Y-14212436D01*
X11371539Y-14212436D02*
X11381063Y-14202912D01*
X11542968Y-14298150D02*
X11542968Y-14431484D01*
X11495348Y-14221960D02*
X11447729Y-14364817D01*
X11447729Y-14364817D02*
X11571539Y-14364817D01*
X11676301Y-14317198D02*
X11657253Y-14307674D01*
X11657253Y-14307674D02*
X11647729Y-14298150D01*
X11647729Y-14298150D02*
X11638206Y-14279103D01*
X11638206Y-14279103D02*
X11638206Y-14269579D01*
X11638206Y-14269579D02*
X11647729Y-14250531D01*
X11647729Y-14250531D02*
X11657253Y-14241008D01*
X11657253Y-14241008D02*
X11676301Y-14231484D01*
X11676301Y-14231484D02*
X11714396Y-14231484D01*
X11714396Y-14231484D02*
X11733444Y-14241008D01*
X11733444Y-14241008D02*
X11742968Y-14250531D01*
X11742968Y-14250531D02*
X11752491Y-14269579D01*
X11752491Y-14269579D02*
X11752491Y-14279103D01*
X11752491Y-14279103D02*
X11742968Y-14298150D01*
X11742968Y-14298150D02*
X11733444Y-14307674D01*
X11733444Y-14307674D02*
X11714396Y-14317198D01*
X11714396Y-14317198D02*
X11676301Y-14317198D01*
X11676301Y-14317198D02*
X11657253Y-14326722D01*
X11657253Y-14326722D02*
X11647729Y-14336246D01*
X11647729Y-14336246D02*
X11638206Y-14355293D01*
X11638206Y-14355293D02*
X11638206Y-14393388D01*
X11638206Y-14393388D02*
X11647729Y-14412436D01*
X11647729Y-14412436D02*
X11657253Y-14421960D01*
X11657253Y-14421960D02*
X11676301Y-14431484D01*
X11676301Y-14431484D02*
X11714396Y-14431484D01*
X11714396Y-14431484D02*
X11733444Y-14421960D01*
X11733444Y-14421960D02*
X11742968Y-14412436D01*
X11742968Y-14412436D02*
X11752491Y-14393388D01*
X11752491Y-14393388D02*
X11752491Y-14355293D01*
X11752491Y-14355293D02*
X11742968Y-14336246D01*
X11742968Y-14336246D02*
X11733444Y-14326722D01*
X11733444Y-14326722D02*
X11714396Y-14317198D01*
X11990587Y-14431484D02*
X11990587Y-14231484D01*
X12076301Y-14431484D02*
X12076301Y-14326722D01*
X12076301Y-14326722D02*
X12066777Y-14307674D01*
X12066777Y-14307674D02*
X12047730Y-14298150D01*
X12047730Y-14298150D02*
X12019158Y-14298150D01*
X12019158Y-14298150D02*
X12000110Y-14307674D01*
X12000110Y-14307674D02*
X11990587Y-14317198D01*
X12200110Y-14431484D02*
X12181063Y-14421960D01*
X12181063Y-14421960D02*
X12171539Y-14412436D01*
X12171539Y-14412436D02*
X12162015Y-14393388D01*
X12162015Y-14393388D02*
X12162015Y-14336246D01*
X12162015Y-14336246D02*
X12171539Y-14317198D01*
X12171539Y-14317198D02*
X12181063Y-14307674D01*
X12181063Y-14307674D02*
X12200110Y-14298150D01*
X12200110Y-14298150D02*
X12228682Y-14298150D01*
X12228682Y-14298150D02*
X12247730Y-14307674D01*
X12247730Y-14307674D02*
X12257253Y-14317198D01*
X12257253Y-14317198D02*
X12266777Y-14336246D01*
X12266777Y-14336246D02*
X12266777Y-14393388D01*
X12266777Y-14393388D02*
X12257253Y-14412436D01*
X12257253Y-14412436D02*
X12247730Y-14421960D01*
X12247730Y-14421960D02*
X12228682Y-14431484D01*
X12228682Y-14431484D02*
X12200110Y-14431484D01*
X12381063Y-14431484D02*
X12362015Y-14421960D01*
X12362015Y-14421960D02*
X12352491Y-14402912D01*
X12352491Y-14402912D02*
X12352491Y-14231484D01*
X12533444Y-14421960D02*
X12514396Y-14431484D01*
X12514396Y-14431484D02*
X12476301Y-14431484D01*
X12476301Y-14431484D02*
X12457253Y-14421960D01*
X12457253Y-14421960D02*
X12447730Y-14402912D01*
X12447730Y-14402912D02*
X12447730Y-14326722D01*
X12447730Y-14326722D02*
X12457253Y-14307674D01*
X12457253Y-14307674D02*
X12476301Y-14298150D01*
X12476301Y-14298150D02*
X12514396Y-14298150D01*
X12514396Y-14298150D02*
X12533444Y-14307674D01*
X12533444Y-14307674D02*
X12542968Y-14326722D01*
X12542968Y-14326722D02*
X12542968Y-14345769D01*
X12542968Y-14345769D02*
X12447730Y-14364817D01*
X12619158Y-14421960D02*
X12638206Y-14431484D01*
X12638206Y-14431484D02*
X12676301Y-14431484D01*
X12676301Y-14431484D02*
X12695349Y-14421960D01*
X12695349Y-14421960D02*
X12704872Y-14402912D01*
X12704872Y-14402912D02*
X12704872Y-14393388D01*
X12704872Y-14393388D02*
X12695349Y-14374341D01*
X12695349Y-14374341D02*
X12676301Y-14364817D01*
X12676301Y-14364817D02*
X12647730Y-14364817D01*
X12647730Y-14364817D02*
X12628682Y-14355293D01*
X12628682Y-14355293D02*
X12619158Y-14336246D01*
X12619158Y-14336246D02*
X12619158Y-14326722D01*
X12619158Y-14326722D02*
X12628682Y-14307674D01*
X12628682Y-14307674D02*
X12647730Y-14298150D01*
X12647730Y-14298150D02*
X12676301Y-14298150D01*
X12676301Y-14298150D02*
X12695349Y-14307674D01*
X12771539Y-14507674D02*
X12781063Y-14498150D01*
X12781063Y-14498150D02*
X12800111Y-14469579D01*
X12800111Y-14469579D02*
X12809634Y-14450531D01*
X12809634Y-14450531D02*
X12819158Y-14421960D01*
X12819158Y-14421960D02*
X12828682Y-14374341D01*
X12828682Y-14374341D02*
X12828682Y-14336246D01*
X12828682Y-14336246D02*
X12819158Y-14288627D01*
X12819158Y-14288627D02*
X12809634Y-14260055D01*
X12809634Y-14260055D02*
X12800111Y-14241008D01*
X12800111Y-14241008D02*
X12781063Y-14212436D01*
X12781063Y-14212436D02*
X12771539Y-14202912D01*
D12*
X7793552Y-14634052D02*
X7793552Y-14573948D01*
X7733448Y-14573948D01*
X7733448Y-14634052D01*
X7793552Y-14634052D01*
D11*
X8104872Y-14495484D02*
X8123920Y-14495484D01*
X8123920Y-14495484D02*
X8142967Y-14505008D01*
X8142967Y-14505008D02*
X8152491Y-14514531D01*
X8152491Y-14514531D02*
X8162015Y-14533579D01*
X8162015Y-14533579D02*
X8171539Y-14571674D01*
X8171539Y-14571674D02*
X8171539Y-14619293D01*
X8171539Y-14619293D02*
X8162015Y-14657388D01*
X8162015Y-14657388D02*
X8152491Y-14676436D01*
X8152491Y-14676436D02*
X8142967Y-14685960D01*
X8142967Y-14685960D02*
X8123920Y-14695484D01*
X8123920Y-14695484D02*
X8104872Y-14695484D01*
X8104872Y-14695484D02*
X8085824Y-14685960D01*
X8085824Y-14685960D02*
X8076301Y-14676436D01*
X8076301Y-14676436D02*
X8066777Y-14657388D01*
X8066777Y-14657388D02*
X8057253Y-14619293D01*
X8057253Y-14619293D02*
X8057253Y-14571674D01*
X8057253Y-14571674D02*
X8066777Y-14533579D01*
X8066777Y-14533579D02*
X8076301Y-14514531D01*
X8076301Y-14514531D02*
X8085824Y-14505008D01*
X8085824Y-14505008D02*
X8104872Y-14495484D01*
X8257253Y-14676436D02*
X8266777Y-14685960D01*
X8266777Y-14685960D02*
X8257253Y-14695484D01*
X8257253Y-14695484D02*
X8247729Y-14685960D01*
X8247729Y-14685960D02*
X8257253Y-14676436D01*
X8257253Y-14676436D02*
X8257253Y-14695484D01*
X8381062Y-14581198D02*
X8362015Y-14571674D01*
X8362015Y-14571674D02*
X8352491Y-14562150D01*
X8352491Y-14562150D02*
X8342967Y-14543103D01*
X8342967Y-14543103D02*
X8342967Y-14533579D01*
X8342967Y-14533579D02*
X8352491Y-14514531D01*
X8352491Y-14514531D02*
X8362015Y-14505008D01*
X8362015Y-14505008D02*
X8381062Y-14495484D01*
X8381062Y-14495484D02*
X8419158Y-14495484D01*
X8419158Y-14495484D02*
X8438205Y-14505008D01*
X8438205Y-14505008D02*
X8447729Y-14514531D01*
X8447729Y-14514531D02*
X8457253Y-14533579D01*
X8457253Y-14533579D02*
X8457253Y-14543103D01*
X8457253Y-14543103D02*
X8447729Y-14562150D01*
X8447729Y-14562150D02*
X8438205Y-14571674D01*
X8438205Y-14571674D02*
X8419158Y-14581198D01*
X8419158Y-14581198D02*
X8381062Y-14581198D01*
X8381062Y-14581198D02*
X8362015Y-14590722D01*
X8362015Y-14590722D02*
X8352491Y-14600246D01*
X8352491Y-14600246D02*
X8342967Y-14619293D01*
X8342967Y-14619293D02*
X8342967Y-14657388D01*
X8342967Y-14657388D02*
X8352491Y-14676436D01*
X8352491Y-14676436D02*
X8362015Y-14685960D01*
X8362015Y-14685960D02*
X8381062Y-14695484D01*
X8381062Y-14695484D02*
X8419158Y-14695484D01*
X8419158Y-14695484D02*
X8438205Y-14685960D01*
X8438205Y-14685960D02*
X8447729Y-14676436D01*
X8447729Y-14676436D02*
X8457253Y-14657388D01*
X8457253Y-14657388D02*
X8457253Y-14619293D01*
X8457253Y-14619293D02*
X8447729Y-14600246D01*
X8447729Y-14600246D02*
X8438205Y-14590722D01*
X8438205Y-14590722D02*
X8419158Y-14581198D01*
X8638205Y-14495484D02*
X8542967Y-14495484D01*
X8542967Y-14495484D02*
X8533444Y-14590722D01*
X8533444Y-14590722D02*
X8542967Y-14581198D01*
X8542967Y-14581198D02*
X8562015Y-14571674D01*
X8562015Y-14571674D02*
X8609634Y-14571674D01*
X8609634Y-14571674D02*
X8628682Y-14581198D01*
X8628682Y-14581198D02*
X8638205Y-14590722D01*
X8638205Y-14590722D02*
X8647729Y-14609769D01*
X8647729Y-14609769D02*
X8647729Y-14657388D01*
X8647729Y-14657388D02*
X8638205Y-14676436D01*
X8638205Y-14676436D02*
X8628682Y-14685960D01*
X8628682Y-14685960D02*
X8609634Y-14695484D01*
X8609634Y-14695484D02*
X8562015Y-14695484D01*
X8562015Y-14695484D02*
X8542967Y-14685960D01*
X8542967Y-14685960D02*
X8533444Y-14676436D01*
X8771539Y-14495484D02*
X8790586Y-14495484D01*
X8790586Y-14495484D02*
X8809634Y-14505008D01*
X8809634Y-14505008D02*
X8819158Y-14514531D01*
X8819158Y-14514531D02*
X8828682Y-14533579D01*
X8828682Y-14533579D02*
X8838205Y-14571674D01*
X8838205Y-14571674D02*
X8838205Y-14619293D01*
X8838205Y-14619293D02*
X8828682Y-14657388D01*
X8828682Y-14657388D02*
X8819158Y-14676436D01*
X8819158Y-14676436D02*
X8809634Y-14685960D01*
X8809634Y-14685960D02*
X8790586Y-14695484D01*
X8790586Y-14695484D02*
X8771539Y-14695484D01*
X8771539Y-14695484D02*
X8752491Y-14685960D01*
X8752491Y-14685960D02*
X8742967Y-14676436D01*
X8742967Y-14676436D02*
X8733444Y-14657388D01*
X8733444Y-14657388D02*
X8723920Y-14619293D01*
X8723920Y-14619293D02*
X8723920Y-14571674D01*
X8723920Y-14571674D02*
X8733444Y-14533579D01*
X8733444Y-14533579D02*
X8742967Y-14514531D01*
X8742967Y-14514531D02*
X8752491Y-14505008D01*
X8752491Y-14505008D02*
X8771539Y-14495484D01*
X8923920Y-14695484D02*
X8923920Y-14562150D01*
X8923920Y-14581198D02*
X8933444Y-14571674D01*
X8933444Y-14571674D02*
X8952491Y-14562150D01*
X8952491Y-14562150D02*
X8981063Y-14562150D01*
X8981063Y-14562150D02*
X9000110Y-14571674D01*
X9000110Y-14571674D02*
X9009634Y-14590722D01*
X9009634Y-14590722D02*
X9009634Y-14695484D01*
X9009634Y-14590722D02*
X9019158Y-14571674D01*
X9019158Y-14571674D02*
X9038205Y-14562150D01*
X9038205Y-14562150D02*
X9066777Y-14562150D01*
X9066777Y-14562150D02*
X9085825Y-14571674D01*
X9085825Y-14571674D02*
X9095348Y-14590722D01*
X9095348Y-14590722D02*
X9095348Y-14695484D01*
X9190586Y-14695484D02*
X9190586Y-14562150D01*
X9190586Y-14581198D02*
X9200110Y-14571674D01*
X9200110Y-14571674D02*
X9219158Y-14562150D01*
X9219158Y-14562150D02*
X9247729Y-14562150D01*
X9247729Y-14562150D02*
X9266777Y-14571674D01*
X9266777Y-14571674D02*
X9276301Y-14590722D01*
X9276301Y-14590722D02*
X9276301Y-14695484D01*
X9276301Y-14590722D02*
X9285825Y-14571674D01*
X9285825Y-14571674D02*
X9304872Y-14562150D01*
X9304872Y-14562150D02*
X9333444Y-14562150D01*
X9333444Y-14562150D02*
X9352491Y-14571674D01*
X9352491Y-14571674D02*
X9362015Y-14590722D01*
X9362015Y-14590722D02*
X9362015Y-14695484D01*
X9752491Y-14485960D02*
X9581063Y-14743103D01*
X10009634Y-14495484D02*
X10028682Y-14495484D01*
X10028682Y-14495484D02*
X10047729Y-14505008D01*
X10047729Y-14505008D02*
X10057253Y-14514531D01*
X10057253Y-14514531D02*
X10066777Y-14533579D01*
X10066777Y-14533579D02*
X10076301Y-14571674D01*
X10076301Y-14571674D02*
X10076301Y-14619293D01*
X10076301Y-14619293D02*
X10066777Y-14657388D01*
X10066777Y-14657388D02*
X10057253Y-14676436D01*
X10057253Y-14676436D02*
X10047729Y-14685960D01*
X10047729Y-14685960D02*
X10028682Y-14695484D01*
X10028682Y-14695484D02*
X10009634Y-14695484D01*
X10009634Y-14695484D02*
X9990587Y-14685960D01*
X9990587Y-14685960D02*
X9981063Y-14676436D01*
X9981063Y-14676436D02*
X9971539Y-14657388D01*
X9971539Y-14657388D02*
X9962015Y-14619293D01*
X9962015Y-14619293D02*
X9962015Y-14571674D01*
X9962015Y-14571674D02*
X9971539Y-14533579D01*
X9971539Y-14533579D02*
X9981063Y-14514531D01*
X9981063Y-14514531D02*
X9990587Y-14505008D01*
X9990587Y-14505008D02*
X10009634Y-14495484D01*
X10162015Y-14676436D02*
X10171539Y-14685960D01*
X10171539Y-14685960D02*
X10162015Y-14695484D01*
X10162015Y-14695484D02*
X10152491Y-14685960D01*
X10152491Y-14685960D02*
X10162015Y-14676436D01*
X10162015Y-14676436D02*
X10162015Y-14695484D01*
X10295348Y-14495484D02*
X10314396Y-14495484D01*
X10314396Y-14495484D02*
X10333444Y-14505008D01*
X10333444Y-14505008D02*
X10342968Y-14514531D01*
X10342968Y-14514531D02*
X10352491Y-14533579D01*
X10352491Y-14533579D02*
X10362015Y-14571674D01*
X10362015Y-14571674D02*
X10362015Y-14619293D01*
X10362015Y-14619293D02*
X10352491Y-14657388D01*
X10352491Y-14657388D02*
X10342968Y-14676436D01*
X10342968Y-14676436D02*
X10333444Y-14685960D01*
X10333444Y-14685960D02*
X10314396Y-14695484D01*
X10314396Y-14695484D02*
X10295348Y-14695484D01*
X10295348Y-14695484D02*
X10276301Y-14685960D01*
X10276301Y-14685960D02*
X10266777Y-14676436D01*
X10266777Y-14676436D02*
X10257253Y-14657388D01*
X10257253Y-14657388D02*
X10247729Y-14619293D01*
X10247729Y-14619293D02*
X10247729Y-14571674D01*
X10247729Y-14571674D02*
X10257253Y-14533579D01*
X10257253Y-14533579D02*
X10266777Y-14514531D01*
X10266777Y-14514531D02*
X10276301Y-14505008D01*
X10276301Y-14505008D02*
X10295348Y-14495484D01*
X10428682Y-14495484D02*
X10552491Y-14495484D01*
X10552491Y-14495484D02*
X10485825Y-14571674D01*
X10485825Y-14571674D02*
X10514396Y-14571674D01*
X10514396Y-14571674D02*
X10533444Y-14581198D01*
X10533444Y-14581198D02*
X10542968Y-14590722D01*
X10542968Y-14590722D02*
X10552491Y-14609769D01*
X10552491Y-14609769D02*
X10552491Y-14657388D01*
X10552491Y-14657388D02*
X10542968Y-14676436D01*
X10542968Y-14676436D02*
X10533444Y-14685960D01*
X10533444Y-14685960D02*
X10514396Y-14695484D01*
X10514396Y-14695484D02*
X10457253Y-14695484D01*
X10457253Y-14695484D02*
X10438206Y-14685960D01*
X10438206Y-14685960D02*
X10428682Y-14676436D01*
X10619158Y-14495484D02*
X10742968Y-14495484D01*
X10742968Y-14495484D02*
X10676301Y-14571674D01*
X10676301Y-14571674D02*
X10704872Y-14571674D01*
X10704872Y-14571674D02*
X10723920Y-14581198D01*
X10723920Y-14581198D02*
X10733444Y-14590722D01*
X10733444Y-14590722D02*
X10742968Y-14609769D01*
X10742968Y-14609769D02*
X10742968Y-14657388D01*
X10742968Y-14657388D02*
X10733444Y-14676436D01*
X10733444Y-14676436D02*
X10723920Y-14685960D01*
X10723920Y-14685960D02*
X10704872Y-14695484D01*
X10704872Y-14695484D02*
X10647729Y-14695484D01*
X10647729Y-14695484D02*
X10628682Y-14685960D01*
X10628682Y-14685960D02*
X10619158Y-14676436D01*
X10923920Y-14495484D02*
X10828682Y-14495484D01*
X10828682Y-14495484D02*
X10819158Y-14590722D01*
X10819158Y-14590722D02*
X10828682Y-14581198D01*
X10828682Y-14581198D02*
X10847729Y-14571674D01*
X10847729Y-14571674D02*
X10895349Y-14571674D01*
X10895349Y-14571674D02*
X10914396Y-14581198D01*
X10914396Y-14581198D02*
X10923920Y-14590722D01*
X10923920Y-14590722D02*
X10933444Y-14609769D01*
X10933444Y-14609769D02*
X10933444Y-14657388D01*
X10933444Y-14657388D02*
X10923920Y-14676436D01*
X10923920Y-14676436D02*
X10914396Y-14685960D01*
X10914396Y-14685960D02*
X10895349Y-14695484D01*
X10895349Y-14695484D02*
X10847729Y-14695484D01*
X10847729Y-14695484D02*
X10828682Y-14685960D01*
X10828682Y-14685960D02*
X10819158Y-14676436D01*
X11009634Y-14495484D02*
X11009634Y-14533579D01*
X11085825Y-14495484D02*
X11085825Y-14533579D01*
X11381063Y-14771674D02*
X11371539Y-14762150D01*
X11371539Y-14762150D02*
X11352491Y-14733579D01*
X11352491Y-14733579D02*
X11342968Y-14714531D01*
X11342968Y-14714531D02*
X11333444Y-14685960D01*
X11333444Y-14685960D02*
X11323920Y-14638341D01*
X11323920Y-14638341D02*
X11323920Y-14600246D01*
X11323920Y-14600246D02*
X11333444Y-14552627D01*
X11333444Y-14552627D02*
X11342968Y-14524055D01*
X11342968Y-14524055D02*
X11352491Y-14505008D01*
X11352491Y-14505008D02*
X11371539Y-14476436D01*
X11371539Y-14476436D02*
X11381063Y-14466912D01*
X11447729Y-14514531D02*
X11457253Y-14505008D01*
X11457253Y-14505008D02*
X11476301Y-14495484D01*
X11476301Y-14495484D02*
X11523920Y-14495484D01*
X11523920Y-14495484D02*
X11542968Y-14505008D01*
X11542968Y-14505008D02*
X11552491Y-14514531D01*
X11552491Y-14514531D02*
X11562015Y-14533579D01*
X11562015Y-14533579D02*
X11562015Y-14552627D01*
X11562015Y-14552627D02*
X11552491Y-14581198D01*
X11552491Y-14581198D02*
X11438206Y-14695484D01*
X11438206Y-14695484D02*
X11562015Y-14695484D01*
X11800110Y-14695484D02*
X11800110Y-14495484D01*
X11885825Y-14695484D02*
X11885825Y-14590722D01*
X11885825Y-14590722D02*
X11876301Y-14571674D01*
X11876301Y-14571674D02*
X11857253Y-14562150D01*
X11857253Y-14562150D02*
X11828682Y-14562150D01*
X11828682Y-14562150D02*
X11809634Y-14571674D01*
X11809634Y-14571674D02*
X11800110Y-14581198D01*
X12009634Y-14695484D02*
X11990587Y-14685960D01*
X11990587Y-14685960D02*
X11981063Y-14676436D01*
X11981063Y-14676436D02*
X11971539Y-14657388D01*
X11971539Y-14657388D02*
X11971539Y-14600246D01*
X11971539Y-14600246D02*
X11981063Y-14581198D01*
X11981063Y-14581198D02*
X11990587Y-14571674D01*
X11990587Y-14571674D02*
X12009634Y-14562150D01*
X12009634Y-14562150D02*
X12038206Y-14562150D01*
X12038206Y-14562150D02*
X12057253Y-14571674D01*
X12057253Y-14571674D02*
X12066777Y-14581198D01*
X12066777Y-14581198D02*
X12076301Y-14600246D01*
X12076301Y-14600246D02*
X12076301Y-14657388D01*
X12076301Y-14657388D02*
X12066777Y-14676436D01*
X12066777Y-14676436D02*
X12057253Y-14685960D01*
X12057253Y-14685960D02*
X12038206Y-14695484D01*
X12038206Y-14695484D02*
X12009634Y-14695484D01*
X12190587Y-14695484D02*
X12171539Y-14685960D01*
X12171539Y-14685960D02*
X12162015Y-14666912D01*
X12162015Y-14666912D02*
X12162015Y-14495484D01*
X12342968Y-14685960D02*
X12323920Y-14695484D01*
X12323920Y-14695484D02*
X12285825Y-14695484D01*
X12285825Y-14695484D02*
X12266777Y-14685960D01*
X12266777Y-14685960D02*
X12257253Y-14666912D01*
X12257253Y-14666912D02*
X12257253Y-14590722D01*
X12257253Y-14590722D02*
X12266777Y-14571674D01*
X12266777Y-14571674D02*
X12285825Y-14562150D01*
X12285825Y-14562150D02*
X12323920Y-14562150D01*
X12323920Y-14562150D02*
X12342968Y-14571674D01*
X12342968Y-14571674D02*
X12352491Y-14590722D01*
X12352491Y-14590722D02*
X12352491Y-14609769D01*
X12352491Y-14609769D02*
X12257253Y-14628817D01*
X12428682Y-14685960D02*
X12447730Y-14695484D01*
X12447730Y-14695484D02*
X12485825Y-14695484D01*
X12485825Y-14695484D02*
X12504872Y-14685960D01*
X12504872Y-14685960D02*
X12514396Y-14666912D01*
X12514396Y-14666912D02*
X12514396Y-14657388D01*
X12514396Y-14657388D02*
X12504872Y-14638341D01*
X12504872Y-14638341D02*
X12485825Y-14628817D01*
X12485825Y-14628817D02*
X12457253Y-14628817D01*
X12457253Y-14628817D02*
X12438206Y-14619293D01*
X12438206Y-14619293D02*
X12428682Y-14600246D01*
X12428682Y-14600246D02*
X12428682Y-14590722D01*
X12428682Y-14590722D02*
X12438206Y-14571674D01*
X12438206Y-14571674D02*
X12457253Y-14562150D01*
X12457253Y-14562150D02*
X12485825Y-14562150D01*
X12485825Y-14562150D02*
X12504872Y-14571674D01*
X12581063Y-14771674D02*
X12590587Y-14762150D01*
X12590587Y-14762150D02*
X12609634Y-14733579D01*
X12609634Y-14733579D02*
X12619158Y-14714531D01*
X12619158Y-14714531D02*
X12628682Y-14685960D01*
X12628682Y-14685960D02*
X12638206Y-14638341D01*
X12638206Y-14638341D02*
X12638206Y-14600246D01*
X12638206Y-14600246D02*
X12628682Y-14552627D01*
X12628682Y-14552627D02*
X12619158Y-14524055D01*
X12619158Y-14524055D02*
X12609634Y-14505008D01*
X12609634Y-14505008D02*
X12590587Y-14476436D01*
X12590587Y-14476436D02*
X12581063Y-14466912D01*
D12*
X7761000Y-14913000D02*
X7806000Y-14868000D01*
X7761000Y-14823000D01*
X7716000Y-14868000D01*
X7761000Y-14913000D01*
D11*
X8104872Y-14759484D02*
X8123920Y-14759484D01*
X8123920Y-14759484D02*
X8142967Y-14769008D01*
X8142967Y-14769008D02*
X8152491Y-14778531D01*
X8152491Y-14778531D02*
X8162015Y-14797579D01*
X8162015Y-14797579D02*
X8171539Y-14835674D01*
X8171539Y-14835674D02*
X8171539Y-14883293D01*
X8171539Y-14883293D02*
X8162015Y-14921388D01*
X8162015Y-14921388D02*
X8152491Y-14940436D01*
X8152491Y-14940436D02*
X8142967Y-14949960D01*
X8142967Y-14949960D02*
X8123920Y-14959484D01*
X8123920Y-14959484D02*
X8104872Y-14959484D01*
X8104872Y-14959484D02*
X8085824Y-14949960D01*
X8085824Y-14949960D02*
X8076301Y-14940436D01*
X8076301Y-14940436D02*
X8066777Y-14921388D01*
X8066777Y-14921388D02*
X8057253Y-14883293D01*
X8057253Y-14883293D02*
X8057253Y-14835674D01*
X8057253Y-14835674D02*
X8066777Y-14797579D01*
X8066777Y-14797579D02*
X8076301Y-14778531D01*
X8076301Y-14778531D02*
X8085824Y-14769008D01*
X8085824Y-14769008D02*
X8104872Y-14759484D01*
X8257253Y-14940436D02*
X8266777Y-14949960D01*
X8266777Y-14949960D02*
X8257253Y-14959484D01*
X8257253Y-14959484D02*
X8247729Y-14949960D01*
X8247729Y-14949960D02*
X8257253Y-14940436D01*
X8257253Y-14940436D02*
X8257253Y-14959484D01*
X8362015Y-14959484D02*
X8400110Y-14959484D01*
X8400110Y-14959484D02*
X8419158Y-14949960D01*
X8419158Y-14949960D02*
X8428682Y-14940436D01*
X8428682Y-14940436D02*
X8447729Y-14911865D01*
X8447729Y-14911865D02*
X8457253Y-14873769D01*
X8457253Y-14873769D02*
X8457253Y-14797579D01*
X8457253Y-14797579D02*
X8447729Y-14778531D01*
X8447729Y-14778531D02*
X8438205Y-14769008D01*
X8438205Y-14769008D02*
X8419158Y-14759484D01*
X8419158Y-14759484D02*
X8381062Y-14759484D01*
X8381062Y-14759484D02*
X8362015Y-14769008D01*
X8362015Y-14769008D02*
X8352491Y-14778531D01*
X8352491Y-14778531D02*
X8342967Y-14797579D01*
X8342967Y-14797579D02*
X8342967Y-14845198D01*
X8342967Y-14845198D02*
X8352491Y-14864246D01*
X8352491Y-14864246D02*
X8362015Y-14873769D01*
X8362015Y-14873769D02*
X8381062Y-14883293D01*
X8381062Y-14883293D02*
X8419158Y-14883293D01*
X8419158Y-14883293D02*
X8438205Y-14873769D01*
X8438205Y-14873769D02*
X8447729Y-14864246D01*
X8447729Y-14864246D02*
X8457253Y-14845198D01*
X8581063Y-14759484D02*
X8600110Y-14759484D01*
X8600110Y-14759484D02*
X8619158Y-14769008D01*
X8619158Y-14769008D02*
X8628682Y-14778531D01*
X8628682Y-14778531D02*
X8638205Y-14797579D01*
X8638205Y-14797579D02*
X8647729Y-14835674D01*
X8647729Y-14835674D02*
X8647729Y-14883293D01*
X8647729Y-14883293D02*
X8638205Y-14921388D01*
X8638205Y-14921388D02*
X8628682Y-14940436D01*
X8628682Y-14940436D02*
X8619158Y-14949960D01*
X8619158Y-14949960D02*
X8600110Y-14959484D01*
X8600110Y-14959484D02*
X8581063Y-14959484D01*
X8581063Y-14959484D02*
X8562015Y-14949960D01*
X8562015Y-14949960D02*
X8552491Y-14940436D01*
X8552491Y-14940436D02*
X8542967Y-14921388D01*
X8542967Y-14921388D02*
X8533444Y-14883293D01*
X8533444Y-14883293D02*
X8533444Y-14835674D01*
X8533444Y-14835674D02*
X8542967Y-14797579D01*
X8542967Y-14797579D02*
X8552491Y-14778531D01*
X8552491Y-14778531D02*
X8562015Y-14769008D01*
X8562015Y-14769008D02*
X8581063Y-14759484D01*
X8771539Y-14759484D02*
X8790586Y-14759484D01*
X8790586Y-14759484D02*
X8809634Y-14769008D01*
X8809634Y-14769008D02*
X8819158Y-14778531D01*
X8819158Y-14778531D02*
X8828682Y-14797579D01*
X8828682Y-14797579D02*
X8838205Y-14835674D01*
X8838205Y-14835674D02*
X8838205Y-14883293D01*
X8838205Y-14883293D02*
X8828682Y-14921388D01*
X8828682Y-14921388D02*
X8819158Y-14940436D01*
X8819158Y-14940436D02*
X8809634Y-14949960D01*
X8809634Y-14949960D02*
X8790586Y-14959484D01*
X8790586Y-14959484D02*
X8771539Y-14959484D01*
X8771539Y-14959484D02*
X8752491Y-14949960D01*
X8752491Y-14949960D02*
X8742967Y-14940436D01*
X8742967Y-14940436D02*
X8733444Y-14921388D01*
X8733444Y-14921388D02*
X8723920Y-14883293D01*
X8723920Y-14883293D02*
X8723920Y-14835674D01*
X8723920Y-14835674D02*
X8733444Y-14797579D01*
X8733444Y-14797579D02*
X8742967Y-14778531D01*
X8742967Y-14778531D02*
X8752491Y-14769008D01*
X8752491Y-14769008D02*
X8771539Y-14759484D01*
X8923920Y-14959484D02*
X8923920Y-14826150D01*
X8923920Y-14845198D02*
X8933444Y-14835674D01*
X8933444Y-14835674D02*
X8952491Y-14826150D01*
X8952491Y-14826150D02*
X8981063Y-14826150D01*
X8981063Y-14826150D02*
X9000110Y-14835674D01*
X9000110Y-14835674D02*
X9009634Y-14854722D01*
X9009634Y-14854722D02*
X9009634Y-14959484D01*
X9009634Y-14854722D02*
X9019158Y-14835674D01*
X9019158Y-14835674D02*
X9038205Y-14826150D01*
X9038205Y-14826150D02*
X9066777Y-14826150D01*
X9066777Y-14826150D02*
X9085825Y-14835674D01*
X9085825Y-14835674D02*
X9095348Y-14854722D01*
X9095348Y-14854722D02*
X9095348Y-14959484D01*
X9190586Y-14959484D02*
X9190586Y-14826150D01*
X9190586Y-14845198D02*
X9200110Y-14835674D01*
X9200110Y-14835674D02*
X9219158Y-14826150D01*
X9219158Y-14826150D02*
X9247729Y-14826150D01*
X9247729Y-14826150D02*
X9266777Y-14835674D01*
X9266777Y-14835674D02*
X9276301Y-14854722D01*
X9276301Y-14854722D02*
X9276301Y-14959484D01*
X9276301Y-14854722D02*
X9285825Y-14835674D01*
X9285825Y-14835674D02*
X9304872Y-14826150D01*
X9304872Y-14826150D02*
X9333444Y-14826150D01*
X9333444Y-14826150D02*
X9352491Y-14835674D01*
X9352491Y-14835674D02*
X9362015Y-14854722D01*
X9362015Y-14854722D02*
X9362015Y-14959484D01*
X9752491Y-14749960D02*
X9581063Y-15007103D01*
X10009634Y-14759484D02*
X10028682Y-14759484D01*
X10028682Y-14759484D02*
X10047729Y-14769008D01*
X10047729Y-14769008D02*
X10057253Y-14778531D01*
X10057253Y-14778531D02*
X10066777Y-14797579D01*
X10066777Y-14797579D02*
X10076301Y-14835674D01*
X10076301Y-14835674D02*
X10076301Y-14883293D01*
X10076301Y-14883293D02*
X10066777Y-14921388D01*
X10066777Y-14921388D02*
X10057253Y-14940436D01*
X10057253Y-14940436D02*
X10047729Y-14949960D01*
X10047729Y-14949960D02*
X10028682Y-14959484D01*
X10028682Y-14959484D02*
X10009634Y-14959484D01*
X10009634Y-14959484D02*
X9990587Y-14949960D01*
X9990587Y-14949960D02*
X9981063Y-14940436D01*
X9981063Y-14940436D02*
X9971539Y-14921388D01*
X9971539Y-14921388D02*
X9962015Y-14883293D01*
X9962015Y-14883293D02*
X9962015Y-14835674D01*
X9962015Y-14835674D02*
X9971539Y-14797579D01*
X9971539Y-14797579D02*
X9981063Y-14778531D01*
X9981063Y-14778531D02*
X9990587Y-14769008D01*
X9990587Y-14769008D02*
X10009634Y-14759484D01*
X10162015Y-14940436D02*
X10171539Y-14949960D01*
X10171539Y-14949960D02*
X10162015Y-14959484D01*
X10162015Y-14959484D02*
X10152491Y-14949960D01*
X10152491Y-14949960D02*
X10162015Y-14940436D01*
X10162015Y-14940436D02*
X10162015Y-14959484D01*
X10295348Y-14759484D02*
X10314396Y-14759484D01*
X10314396Y-14759484D02*
X10333444Y-14769008D01*
X10333444Y-14769008D02*
X10342968Y-14778531D01*
X10342968Y-14778531D02*
X10352491Y-14797579D01*
X10352491Y-14797579D02*
X10362015Y-14835674D01*
X10362015Y-14835674D02*
X10362015Y-14883293D01*
X10362015Y-14883293D02*
X10352491Y-14921388D01*
X10352491Y-14921388D02*
X10342968Y-14940436D01*
X10342968Y-14940436D02*
X10333444Y-14949960D01*
X10333444Y-14949960D02*
X10314396Y-14959484D01*
X10314396Y-14959484D02*
X10295348Y-14959484D01*
X10295348Y-14959484D02*
X10276301Y-14949960D01*
X10276301Y-14949960D02*
X10266777Y-14940436D01*
X10266777Y-14940436D02*
X10257253Y-14921388D01*
X10257253Y-14921388D02*
X10247729Y-14883293D01*
X10247729Y-14883293D02*
X10247729Y-14835674D01*
X10247729Y-14835674D02*
X10257253Y-14797579D01*
X10257253Y-14797579D02*
X10266777Y-14778531D01*
X10266777Y-14778531D02*
X10276301Y-14769008D01*
X10276301Y-14769008D02*
X10295348Y-14759484D01*
X10428682Y-14759484D02*
X10552491Y-14759484D01*
X10552491Y-14759484D02*
X10485825Y-14835674D01*
X10485825Y-14835674D02*
X10514396Y-14835674D01*
X10514396Y-14835674D02*
X10533444Y-14845198D01*
X10533444Y-14845198D02*
X10542968Y-14854722D01*
X10542968Y-14854722D02*
X10552491Y-14873769D01*
X10552491Y-14873769D02*
X10552491Y-14921388D01*
X10552491Y-14921388D02*
X10542968Y-14940436D01*
X10542968Y-14940436D02*
X10533444Y-14949960D01*
X10533444Y-14949960D02*
X10514396Y-14959484D01*
X10514396Y-14959484D02*
X10457253Y-14959484D01*
X10457253Y-14959484D02*
X10438206Y-14949960D01*
X10438206Y-14949960D02*
X10428682Y-14940436D01*
X10733444Y-14759484D02*
X10638206Y-14759484D01*
X10638206Y-14759484D02*
X10628682Y-14854722D01*
X10628682Y-14854722D02*
X10638206Y-14845198D01*
X10638206Y-14845198D02*
X10657253Y-14835674D01*
X10657253Y-14835674D02*
X10704872Y-14835674D01*
X10704872Y-14835674D02*
X10723920Y-14845198D01*
X10723920Y-14845198D02*
X10733444Y-14854722D01*
X10733444Y-14854722D02*
X10742968Y-14873769D01*
X10742968Y-14873769D02*
X10742968Y-14921388D01*
X10742968Y-14921388D02*
X10733444Y-14940436D01*
X10733444Y-14940436D02*
X10723920Y-14949960D01*
X10723920Y-14949960D02*
X10704872Y-14959484D01*
X10704872Y-14959484D02*
X10657253Y-14959484D01*
X10657253Y-14959484D02*
X10638206Y-14949960D01*
X10638206Y-14949960D02*
X10628682Y-14940436D01*
X10914396Y-14826150D02*
X10914396Y-14959484D01*
X10866777Y-14749960D02*
X10819158Y-14892817D01*
X10819158Y-14892817D02*
X10942968Y-14892817D01*
X11009634Y-14759484D02*
X11009634Y-14797579D01*
X11085825Y-14759484D02*
X11085825Y-14797579D01*
X11381063Y-15035674D02*
X11371539Y-15026150D01*
X11371539Y-15026150D02*
X11352491Y-14997579D01*
X11352491Y-14997579D02*
X11342968Y-14978531D01*
X11342968Y-14978531D02*
X11333444Y-14949960D01*
X11333444Y-14949960D02*
X11323920Y-14902341D01*
X11323920Y-14902341D02*
X11323920Y-14864246D01*
X11323920Y-14864246D02*
X11333444Y-14816627D01*
X11333444Y-14816627D02*
X11342968Y-14788055D01*
X11342968Y-14788055D02*
X11352491Y-14769008D01*
X11352491Y-14769008D02*
X11371539Y-14740436D01*
X11371539Y-14740436D02*
X11381063Y-14730912D01*
X11542968Y-14759484D02*
X11504872Y-14759484D01*
X11504872Y-14759484D02*
X11485825Y-14769008D01*
X11485825Y-14769008D02*
X11476301Y-14778531D01*
X11476301Y-14778531D02*
X11457253Y-14807103D01*
X11457253Y-14807103D02*
X11447729Y-14845198D01*
X11447729Y-14845198D02*
X11447729Y-14921388D01*
X11447729Y-14921388D02*
X11457253Y-14940436D01*
X11457253Y-14940436D02*
X11466777Y-14949960D01*
X11466777Y-14949960D02*
X11485825Y-14959484D01*
X11485825Y-14959484D02*
X11523920Y-14959484D01*
X11523920Y-14959484D02*
X11542968Y-14949960D01*
X11542968Y-14949960D02*
X11552491Y-14940436D01*
X11552491Y-14940436D02*
X11562015Y-14921388D01*
X11562015Y-14921388D02*
X11562015Y-14873769D01*
X11562015Y-14873769D02*
X11552491Y-14854722D01*
X11552491Y-14854722D02*
X11542968Y-14845198D01*
X11542968Y-14845198D02*
X11523920Y-14835674D01*
X11523920Y-14835674D02*
X11485825Y-14835674D01*
X11485825Y-14835674D02*
X11466777Y-14845198D01*
X11466777Y-14845198D02*
X11457253Y-14854722D01*
X11457253Y-14854722D02*
X11447729Y-14873769D01*
X11800110Y-14959484D02*
X11800110Y-14759484D01*
X11885825Y-14959484D02*
X11885825Y-14854722D01*
X11885825Y-14854722D02*
X11876301Y-14835674D01*
X11876301Y-14835674D02*
X11857253Y-14826150D01*
X11857253Y-14826150D02*
X11828682Y-14826150D01*
X11828682Y-14826150D02*
X11809634Y-14835674D01*
X11809634Y-14835674D02*
X11800110Y-14845198D01*
X12009634Y-14959484D02*
X11990587Y-14949960D01*
X11990587Y-14949960D02*
X11981063Y-14940436D01*
X11981063Y-14940436D02*
X11971539Y-14921388D01*
X11971539Y-14921388D02*
X11971539Y-14864246D01*
X11971539Y-14864246D02*
X11981063Y-14845198D01*
X11981063Y-14845198D02*
X11990587Y-14835674D01*
X11990587Y-14835674D02*
X12009634Y-14826150D01*
X12009634Y-14826150D02*
X12038206Y-14826150D01*
X12038206Y-14826150D02*
X12057253Y-14835674D01*
X12057253Y-14835674D02*
X12066777Y-14845198D01*
X12066777Y-14845198D02*
X12076301Y-14864246D01*
X12076301Y-14864246D02*
X12076301Y-14921388D01*
X12076301Y-14921388D02*
X12066777Y-14940436D01*
X12066777Y-14940436D02*
X12057253Y-14949960D01*
X12057253Y-14949960D02*
X12038206Y-14959484D01*
X12038206Y-14959484D02*
X12009634Y-14959484D01*
X12190587Y-14959484D02*
X12171539Y-14949960D01*
X12171539Y-14949960D02*
X12162015Y-14930912D01*
X12162015Y-14930912D02*
X12162015Y-14759484D01*
X12342968Y-14949960D02*
X12323920Y-14959484D01*
X12323920Y-14959484D02*
X12285825Y-14959484D01*
X12285825Y-14959484D02*
X12266777Y-14949960D01*
X12266777Y-14949960D02*
X12257253Y-14930912D01*
X12257253Y-14930912D02*
X12257253Y-14854722D01*
X12257253Y-14854722D02*
X12266777Y-14835674D01*
X12266777Y-14835674D02*
X12285825Y-14826150D01*
X12285825Y-14826150D02*
X12323920Y-14826150D01*
X12323920Y-14826150D02*
X12342968Y-14835674D01*
X12342968Y-14835674D02*
X12352491Y-14854722D01*
X12352491Y-14854722D02*
X12352491Y-14873769D01*
X12352491Y-14873769D02*
X12257253Y-14892817D01*
X12428682Y-14949960D02*
X12447730Y-14959484D01*
X12447730Y-14959484D02*
X12485825Y-14959484D01*
X12485825Y-14959484D02*
X12504872Y-14949960D01*
X12504872Y-14949960D02*
X12514396Y-14930912D01*
X12514396Y-14930912D02*
X12514396Y-14921388D01*
X12514396Y-14921388D02*
X12504872Y-14902341D01*
X12504872Y-14902341D02*
X12485825Y-14892817D01*
X12485825Y-14892817D02*
X12457253Y-14892817D01*
X12457253Y-14892817D02*
X12438206Y-14883293D01*
X12438206Y-14883293D02*
X12428682Y-14864246D01*
X12428682Y-14864246D02*
X12428682Y-14854722D01*
X12428682Y-14854722D02*
X12438206Y-14835674D01*
X12438206Y-14835674D02*
X12457253Y-14826150D01*
X12457253Y-14826150D02*
X12485825Y-14826150D01*
X12485825Y-14826150D02*
X12504872Y-14835674D01*
X12581063Y-15035674D02*
X12590587Y-15026150D01*
X12590587Y-15026150D02*
X12609634Y-14997579D01*
X12609634Y-14997579D02*
X12619158Y-14978531D01*
X12619158Y-14978531D02*
X12628682Y-14949960D01*
X12628682Y-14949960D02*
X12638206Y-14902341D01*
X12638206Y-14902341D02*
X12638206Y-14864246D01*
X12638206Y-14864246D02*
X12628682Y-14816627D01*
X12628682Y-14816627D02*
X12619158Y-14788055D01*
X12619158Y-14788055D02*
X12609634Y-14769008D01*
X12609634Y-14769008D02*
X12590587Y-14740436D01*
X12590587Y-14740436D02*
X12581063Y-14730912D01*
D12*
X7706000Y-15082000D02*
X7806000Y-15182000D01*
X7806000Y-15082000D02*
X7706000Y-15182000D01*
X7806000Y-15132000D02*
G75*
G02*
X7706000Y-15132000I-50000J0D01*
G01*
X7706000Y-15132000D02*
G75*
G02*
X7806000Y-15132000I50000J0D01*
G01*
D11*
X8171539Y-15223484D02*
X8057253Y-15223484D01*
X8114396Y-15223484D02*
X8114396Y-15023484D01*
X8114396Y-15023484D02*
X8095348Y-15052055D01*
X8095348Y-15052055D02*
X8076301Y-15071103D01*
X8076301Y-15071103D02*
X8057253Y-15080627D01*
X8257253Y-15204436D02*
X8266777Y-15213960D01*
X8266777Y-15213960D02*
X8257253Y-15223484D01*
X8257253Y-15223484D02*
X8247729Y-15213960D01*
X8247729Y-15213960D02*
X8257253Y-15204436D01*
X8257253Y-15204436D02*
X8257253Y-15223484D01*
X8390586Y-15023484D02*
X8409634Y-15023484D01*
X8409634Y-15023484D02*
X8428682Y-15033008D01*
X8428682Y-15033008D02*
X8438205Y-15042531D01*
X8438205Y-15042531D02*
X8447729Y-15061579D01*
X8447729Y-15061579D02*
X8457253Y-15099674D01*
X8457253Y-15099674D02*
X8457253Y-15147293D01*
X8457253Y-15147293D02*
X8447729Y-15185388D01*
X8447729Y-15185388D02*
X8438205Y-15204436D01*
X8438205Y-15204436D02*
X8428682Y-15213960D01*
X8428682Y-15213960D02*
X8409634Y-15223484D01*
X8409634Y-15223484D02*
X8390586Y-15223484D01*
X8390586Y-15223484D02*
X8371539Y-15213960D01*
X8371539Y-15213960D02*
X8362015Y-15204436D01*
X8362015Y-15204436D02*
X8352491Y-15185388D01*
X8352491Y-15185388D02*
X8342967Y-15147293D01*
X8342967Y-15147293D02*
X8342967Y-15099674D01*
X8342967Y-15099674D02*
X8352491Y-15061579D01*
X8352491Y-15061579D02*
X8362015Y-15042531D01*
X8362015Y-15042531D02*
X8371539Y-15033008D01*
X8371539Y-15033008D02*
X8390586Y-15023484D01*
X8581063Y-15023484D02*
X8600110Y-15023484D01*
X8600110Y-15023484D02*
X8619158Y-15033008D01*
X8619158Y-15033008D02*
X8628682Y-15042531D01*
X8628682Y-15042531D02*
X8638205Y-15061579D01*
X8638205Y-15061579D02*
X8647729Y-15099674D01*
X8647729Y-15099674D02*
X8647729Y-15147293D01*
X8647729Y-15147293D02*
X8638205Y-15185388D01*
X8638205Y-15185388D02*
X8628682Y-15204436D01*
X8628682Y-15204436D02*
X8619158Y-15213960D01*
X8619158Y-15213960D02*
X8600110Y-15223484D01*
X8600110Y-15223484D02*
X8581063Y-15223484D01*
X8581063Y-15223484D02*
X8562015Y-15213960D01*
X8562015Y-15213960D02*
X8552491Y-15204436D01*
X8552491Y-15204436D02*
X8542967Y-15185388D01*
X8542967Y-15185388D02*
X8533444Y-15147293D01*
X8533444Y-15147293D02*
X8533444Y-15099674D01*
X8533444Y-15099674D02*
X8542967Y-15061579D01*
X8542967Y-15061579D02*
X8552491Y-15042531D01*
X8552491Y-15042531D02*
X8562015Y-15033008D01*
X8562015Y-15033008D02*
X8581063Y-15023484D01*
X8771539Y-15023484D02*
X8790586Y-15023484D01*
X8790586Y-15023484D02*
X8809634Y-15033008D01*
X8809634Y-15033008D02*
X8819158Y-15042531D01*
X8819158Y-15042531D02*
X8828682Y-15061579D01*
X8828682Y-15061579D02*
X8838205Y-15099674D01*
X8838205Y-15099674D02*
X8838205Y-15147293D01*
X8838205Y-15147293D02*
X8828682Y-15185388D01*
X8828682Y-15185388D02*
X8819158Y-15204436D01*
X8819158Y-15204436D02*
X8809634Y-15213960D01*
X8809634Y-15213960D02*
X8790586Y-15223484D01*
X8790586Y-15223484D02*
X8771539Y-15223484D01*
X8771539Y-15223484D02*
X8752491Y-15213960D01*
X8752491Y-15213960D02*
X8742967Y-15204436D01*
X8742967Y-15204436D02*
X8733444Y-15185388D01*
X8733444Y-15185388D02*
X8723920Y-15147293D01*
X8723920Y-15147293D02*
X8723920Y-15099674D01*
X8723920Y-15099674D02*
X8733444Y-15061579D01*
X8733444Y-15061579D02*
X8742967Y-15042531D01*
X8742967Y-15042531D02*
X8752491Y-15033008D01*
X8752491Y-15033008D02*
X8771539Y-15023484D01*
X8923920Y-15223484D02*
X8923920Y-15090150D01*
X8923920Y-15109198D02*
X8933444Y-15099674D01*
X8933444Y-15099674D02*
X8952491Y-15090150D01*
X8952491Y-15090150D02*
X8981063Y-15090150D01*
X8981063Y-15090150D02*
X9000110Y-15099674D01*
X9000110Y-15099674D02*
X9009634Y-15118722D01*
X9009634Y-15118722D02*
X9009634Y-15223484D01*
X9009634Y-15118722D02*
X9019158Y-15099674D01*
X9019158Y-15099674D02*
X9038205Y-15090150D01*
X9038205Y-15090150D02*
X9066777Y-15090150D01*
X9066777Y-15090150D02*
X9085825Y-15099674D01*
X9085825Y-15099674D02*
X9095348Y-15118722D01*
X9095348Y-15118722D02*
X9095348Y-15223484D01*
X9190586Y-15223484D02*
X9190586Y-15090150D01*
X9190586Y-15109198D02*
X9200110Y-15099674D01*
X9200110Y-15099674D02*
X9219158Y-15090150D01*
X9219158Y-15090150D02*
X9247729Y-15090150D01*
X9247729Y-15090150D02*
X9266777Y-15099674D01*
X9266777Y-15099674D02*
X9276301Y-15118722D01*
X9276301Y-15118722D02*
X9276301Y-15223484D01*
X9276301Y-15118722D02*
X9285825Y-15099674D01*
X9285825Y-15099674D02*
X9304872Y-15090150D01*
X9304872Y-15090150D02*
X9333444Y-15090150D01*
X9333444Y-15090150D02*
X9352491Y-15099674D01*
X9352491Y-15099674D02*
X9362015Y-15118722D01*
X9362015Y-15118722D02*
X9362015Y-15223484D01*
X9752491Y-15013960D02*
X9581063Y-15271103D01*
X10009634Y-15023484D02*
X10028682Y-15023484D01*
X10028682Y-15023484D02*
X10047729Y-15033008D01*
X10047729Y-15033008D02*
X10057253Y-15042531D01*
X10057253Y-15042531D02*
X10066777Y-15061579D01*
X10066777Y-15061579D02*
X10076301Y-15099674D01*
X10076301Y-15099674D02*
X10076301Y-15147293D01*
X10076301Y-15147293D02*
X10066777Y-15185388D01*
X10066777Y-15185388D02*
X10057253Y-15204436D01*
X10057253Y-15204436D02*
X10047729Y-15213960D01*
X10047729Y-15213960D02*
X10028682Y-15223484D01*
X10028682Y-15223484D02*
X10009634Y-15223484D01*
X10009634Y-15223484D02*
X9990587Y-15213960D01*
X9990587Y-15213960D02*
X9981063Y-15204436D01*
X9981063Y-15204436D02*
X9971539Y-15185388D01*
X9971539Y-15185388D02*
X9962015Y-15147293D01*
X9962015Y-15147293D02*
X9962015Y-15099674D01*
X9962015Y-15099674D02*
X9971539Y-15061579D01*
X9971539Y-15061579D02*
X9981063Y-15042531D01*
X9981063Y-15042531D02*
X9990587Y-15033008D01*
X9990587Y-15033008D02*
X10009634Y-15023484D01*
X10162015Y-15204436D02*
X10171539Y-15213960D01*
X10171539Y-15213960D02*
X10162015Y-15223484D01*
X10162015Y-15223484D02*
X10152491Y-15213960D01*
X10152491Y-15213960D02*
X10162015Y-15204436D01*
X10162015Y-15204436D02*
X10162015Y-15223484D01*
X10295348Y-15023484D02*
X10314396Y-15023484D01*
X10314396Y-15023484D02*
X10333444Y-15033008D01*
X10333444Y-15033008D02*
X10342968Y-15042531D01*
X10342968Y-15042531D02*
X10352491Y-15061579D01*
X10352491Y-15061579D02*
X10362015Y-15099674D01*
X10362015Y-15099674D02*
X10362015Y-15147293D01*
X10362015Y-15147293D02*
X10352491Y-15185388D01*
X10352491Y-15185388D02*
X10342968Y-15204436D01*
X10342968Y-15204436D02*
X10333444Y-15213960D01*
X10333444Y-15213960D02*
X10314396Y-15223484D01*
X10314396Y-15223484D02*
X10295348Y-15223484D01*
X10295348Y-15223484D02*
X10276301Y-15213960D01*
X10276301Y-15213960D02*
X10266777Y-15204436D01*
X10266777Y-15204436D02*
X10257253Y-15185388D01*
X10257253Y-15185388D02*
X10247729Y-15147293D01*
X10247729Y-15147293D02*
X10247729Y-15099674D01*
X10247729Y-15099674D02*
X10257253Y-15061579D01*
X10257253Y-15061579D02*
X10266777Y-15042531D01*
X10266777Y-15042531D02*
X10276301Y-15033008D01*
X10276301Y-15033008D02*
X10295348Y-15023484D01*
X10428682Y-15023484D02*
X10552491Y-15023484D01*
X10552491Y-15023484D02*
X10485825Y-15099674D01*
X10485825Y-15099674D02*
X10514396Y-15099674D01*
X10514396Y-15099674D02*
X10533444Y-15109198D01*
X10533444Y-15109198D02*
X10542968Y-15118722D01*
X10542968Y-15118722D02*
X10552491Y-15137769D01*
X10552491Y-15137769D02*
X10552491Y-15185388D01*
X10552491Y-15185388D02*
X10542968Y-15204436D01*
X10542968Y-15204436D02*
X10533444Y-15213960D01*
X10533444Y-15213960D02*
X10514396Y-15223484D01*
X10514396Y-15223484D02*
X10457253Y-15223484D01*
X10457253Y-15223484D02*
X10438206Y-15213960D01*
X10438206Y-15213960D02*
X10428682Y-15204436D01*
X10647729Y-15223484D02*
X10685825Y-15223484D01*
X10685825Y-15223484D02*
X10704872Y-15213960D01*
X10704872Y-15213960D02*
X10714396Y-15204436D01*
X10714396Y-15204436D02*
X10733444Y-15175865D01*
X10733444Y-15175865D02*
X10742968Y-15137769D01*
X10742968Y-15137769D02*
X10742968Y-15061579D01*
X10742968Y-15061579D02*
X10733444Y-15042531D01*
X10733444Y-15042531D02*
X10723920Y-15033008D01*
X10723920Y-15033008D02*
X10704872Y-15023484D01*
X10704872Y-15023484D02*
X10666777Y-15023484D01*
X10666777Y-15023484D02*
X10647729Y-15033008D01*
X10647729Y-15033008D02*
X10638206Y-15042531D01*
X10638206Y-15042531D02*
X10628682Y-15061579D01*
X10628682Y-15061579D02*
X10628682Y-15109198D01*
X10628682Y-15109198D02*
X10638206Y-15128246D01*
X10638206Y-15128246D02*
X10647729Y-15137769D01*
X10647729Y-15137769D02*
X10666777Y-15147293D01*
X10666777Y-15147293D02*
X10704872Y-15147293D01*
X10704872Y-15147293D02*
X10723920Y-15137769D01*
X10723920Y-15137769D02*
X10733444Y-15128246D01*
X10733444Y-15128246D02*
X10742968Y-15109198D01*
X10914396Y-15090150D02*
X10914396Y-15223484D01*
X10866777Y-15013960D02*
X10819158Y-15156817D01*
X10819158Y-15156817D02*
X10942968Y-15156817D01*
X11009634Y-15023484D02*
X11009634Y-15061579D01*
X11085825Y-15023484D02*
X11085825Y-15061579D01*
X11381063Y-15299674D02*
X11371539Y-15290150D01*
X11371539Y-15290150D02*
X11352491Y-15261579D01*
X11352491Y-15261579D02*
X11342968Y-15242531D01*
X11342968Y-15242531D02*
X11333444Y-15213960D01*
X11333444Y-15213960D02*
X11323920Y-15166341D01*
X11323920Y-15166341D02*
X11323920Y-15128246D01*
X11323920Y-15128246D02*
X11333444Y-15080627D01*
X11333444Y-15080627D02*
X11342968Y-15052055D01*
X11342968Y-15052055D02*
X11352491Y-15033008D01*
X11352491Y-15033008D02*
X11371539Y-15004436D01*
X11371539Y-15004436D02*
X11381063Y-14994912D01*
X11562015Y-15223484D02*
X11447729Y-15223484D01*
X11504872Y-15223484D02*
X11504872Y-15023484D01*
X11504872Y-15023484D02*
X11485825Y-15052055D01*
X11485825Y-15052055D02*
X11466777Y-15071103D01*
X11466777Y-15071103D02*
X11447729Y-15080627D01*
X11733444Y-15090150D02*
X11733444Y-15223484D01*
X11685825Y-15013960D02*
X11638206Y-15156817D01*
X11638206Y-15156817D02*
X11762015Y-15156817D01*
X11990587Y-15223484D02*
X11990587Y-15023484D01*
X12076301Y-15223484D02*
X12076301Y-15118722D01*
X12076301Y-15118722D02*
X12066777Y-15099674D01*
X12066777Y-15099674D02*
X12047730Y-15090150D01*
X12047730Y-15090150D02*
X12019158Y-15090150D01*
X12019158Y-15090150D02*
X12000110Y-15099674D01*
X12000110Y-15099674D02*
X11990587Y-15109198D01*
X12200110Y-15223484D02*
X12181063Y-15213960D01*
X12181063Y-15213960D02*
X12171539Y-15204436D01*
X12171539Y-15204436D02*
X12162015Y-15185388D01*
X12162015Y-15185388D02*
X12162015Y-15128246D01*
X12162015Y-15128246D02*
X12171539Y-15109198D01*
X12171539Y-15109198D02*
X12181063Y-15099674D01*
X12181063Y-15099674D02*
X12200110Y-15090150D01*
X12200110Y-15090150D02*
X12228682Y-15090150D01*
X12228682Y-15090150D02*
X12247730Y-15099674D01*
X12247730Y-15099674D02*
X12257253Y-15109198D01*
X12257253Y-15109198D02*
X12266777Y-15128246D01*
X12266777Y-15128246D02*
X12266777Y-15185388D01*
X12266777Y-15185388D02*
X12257253Y-15204436D01*
X12257253Y-15204436D02*
X12247730Y-15213960D01*
X12247730Y-15213960D02*
X12228682Y-15223484D01*
X12228682Y-15223484D02*
X12200110Y-15223484D01*
X12381063Y-15223484D02*
X12362015Y-15213960D01*
X12362015Y-15213960D02*
X12352491Y-15194912D01*
X12352491Y-15194912D02*
X12352491Y-15023484D01*
X12533444Y-15213960D02*
X12514396Y-15223484D01*
X12514396Y-15223484D02*
X12476301Y-15223484D01*
X12476301Y-15223484D02*
X12457253Y-15213960D01*
X12457253Y-15213960D02*
X12447730Y-15194912D01*
X12447730Y-15194912D02*
X12447730Y-15118722D01*
X12447730Y-15118722D02*
X12457253Y-15099674D01*
X12457253Y-15099674D02*
X12476301Y-15090150D01*
X12476301Y-15090150D02*
X12514396Y-15090150D01*
X12514396Y-15090150D02*
X12533444Y-15099674D01*
X12533444Y-15099674D02*
X12542968Y-15118722D01*
X12542968Y-15118722D02*
X12542968Y-15137769D01*
X12542968Y-15137769D02*
X12447730Y-15156817D01*
X12619158Y-15213960D02*
X12638206Y-15223484D01*
X12638206Y-15223484D02*
X12676301Y-15223484D01*
X12676301Y-15223484D02*
X12695349Y-15213960D01*
X12695349Y-15213960D02*
X12704872Y-15194912D01*
X12704872Y-15194912D02*
X12704872Y-15185388D01*
X12704872Y-15185388D02*
X12695349Y-15166341D01*
X12695349Y-15166341D02*
X12676301Y-15156817D01*
X12676301Y-15156817D02*
X12647730Y-15156817D01*
X12647730Y-15156817D02*
X12628682Y-15147293D01*
X12628682Y-15147293D02*
X12619158Y-15128246D01*
X12619158Y-15128246D02*
X12619158Y-15118722D01*
X12619158Y-15118722D02*
X12628682Y-15099674D01*
X12628682Y-15099674D02*
X12647730Y-15090150D01*
X12647730Y-15090150D02*
X12676301Y-15090150D01*
X12676301Y-15090150D02*
X12695349Y-15099674D01*
X12771539Y-15299674D02*
X12781063Y-15290150D01*
X12781063Y-15290150D02*
X12800111Y-15261579D01*
X12800111Y-15261579D02*
X12809634Y-15242531D01*
X12809634Y-15242531D02*
X12819158Y-15213960D01*
X12819158Y-15213960D02*
X12828682Y-15166341D01*
X12828682Y-15166341D02*
X12828682Y-15128246D01*
X12828682Y-15128246D02*
X12819158Y-15080627D01*
X12819158Y-15080627D02*
X12809634Y-15052055D01*
X12809634Y-15052055D02*
X12800111Y-15033008D01*
X12800111Y-15033008D02*
X12781063Y-15004436D01*
X12781063Y-15004436D02*
X12771539Y-14994912D01*
D13*
X7696000Y-15341000D02*
X7806000Y-15451000D01*
X7806000Y-15341000D02*
X7696000Y-15451000D01*
X7751000Y-15341000D02*
X7751000Y-15451000D01*
X7696000Y-15396000D02*
X7806000Y-15396000D01*
D11*
X8171539Y-15487484D02*
X8057253Y-15487484D01*
X8114396Y-15487484D02*
X8114396Y-15287484D01*
X8114396Y-15287484D02*
X8095348Y-15316055D01*
X8095348Y-15316055D02*
X8076301Y-15335103D01*
X8076301Y-15335103D02*
X8057253Y-15344627D01*
X8257253Y-15468436D02*
X8266777Y-15477960D01*
X8266777Y-15477960D02*
X8257253Y-15487484D01*
X8257253Y-15487484D02*
X8247729Y-15477960D01*
X8247729Y-15477960D02*
X8257253Y-15468436D01*
X8257253Y-15468436D02*
X8257253Y-15487484D01*
X8457253Y-15487484D02*
X8342967Y-15487484D01*
X8400110Y-15487484D02*
X8400110Y-15287484D01*
X8400110Y-15287484D02*
X8381062Y-15316055D01*
X8381062Y-15316055D02*
X8362015Y-15335103D01*
X8362015Y-15335103D02*
X8342967Y-15344627D01*
X8581063Y-15287484D02*
X8600110Y-15287484D01*
X8600110Y-15287484D02*
X8619158Y-15297008D01*
X8619158Y-15297008D02*
X8628682Y-15306531D01*
X8628682Y-15306531D02*
X8638205Y-15325579D01*
X8638205Y-15325579D02*
X8647729Y-15363674D01*
X8647729Y-15363674D02*
X8647729Y-15411293D01*
X8647729Y-15411293D02*
X8638205Y-15449388D01*
X8638205Y-15449388D02*
X8628682Y-15468436D01*
X8628682Y-15468436D02*
X8619158Y-15477960D01*
X8619158Y-15477960D02*
X8600110Y-15487484D01*
X8600110Y-15487484D02*
X8581063Y-15487484D01*
X8581063Y-15487484D02*
X8562015Y-15477960D01*
X8562015Y-15477960D02*
X8552491Y-15468436D01*
X8552491Y-15468436D02*
X8542967Y-15449388D01*
X8542967Y-15449388D02*
X8533444Y-15411293D01*
X8533444Y-15411293D02*
X8533444Y-15363674D01*
X8533444Y-15363674D02*
X8542967Y-15325579D01*
X8542967Y-15325579D02*
X8552491Y-15306531D01*
X8552491Y-15306531D02*
X8562015Y-15297008D01*
X8562015Y-15297008D02*
X8581063Y-15287484D01*
X8771539Y-15287484D02*
X8790586Y-15287484D01*
X8790586Y-15287484D02*
X8809634Y-15297008D01*
X8809634Y-15297008D02*
X8819158Y-15306531D01*
X8819158Y-15306531D02*
X8828682Y-15325579D01*
X8828682Y-15325579D02*
X8838205Y-15363674D01*
X8838205Y-15363674D02*
X8838205Y-15411293D01*
X8838205Y-15411293D02*
X8828682Y-15449388D01*
X8828682Y-15449388D02*
X8819158Y-15468436D01*
X8819158Y-15468436D02*
X8809634Y-15477960D01*
X8809634Y-15477960D02*
X8790586Y-15487484D01*
X8790586Y-15487484D02*
X8771539Y-15487484D01*
X8771539Y-15487484D02*
X8752491Y-15477960D01*
X8752491Y-15477960D02*
X8742967Y-15468436D01*
X8742967Y-15468436D02*
X8733444Y-15449388D01*
X8733444Y-15449388D02*
X8723920Y-15411293D01*
X8723920Y-15411293D02*
X8723920Y-15363674D01*
X8723920Y-15363674D02*
X8733444Y-15325579D01*
X8733444Y-15325579D02*
X8742967Y-15306531D01*
X8742967Y-15306531D02*
X8752491Y-15297008D01*
X8752491Y-15297008D02*
X8771539Y-15287484D01*
X8923920Y-15487484D02*
X8923920Y-15354150D01*
X8923920Y-15373198D02*
X8933444Y-15363674D01*
X8933444Y-15363674D02*
X8952491Y-15354150D01*
X8952491Y-15354150D02*
X8981063Y-15354150D01*
X8981063Y-15354150D02*
X9000110Y-15363674D01*
X9000110Y-15363674D02*
X9009634Y-15382722D01*
X9009634Y-15382722D02*
X9009634Y-15487484D01*
X9009634Y-15382722D02*
X9019158Y-15363674D01*
X9019158Y-15363674D02*
X9038205Y-15354150D01*
X9038205Y-15354150D02*
X9066777Y-15354150D01*
X9066777Y-15354150D02*
X9085825Y-15363674D01*
X9085825Y-15363674D02*
X9095348Y-15382722D01*
X9095348Y-15382722D02*
X9095348Y-15487484D01*
X9190586Y-15487484D02*
X9190586Y-15354150D01*
X9190586Y-15373198D02*
X9200110Y-15363674D01*
X9200110Y-15363674D02*
X9219158Y-15354150D01*
X9219158Y-15354150D02*
X9247729Y-15354150D01*
X9247729Y-15354150D02*
X9266777Y-15363674D01*
X9266777Y-15363674D02*
X9276301Y-15382722D01*
X9276301Y-15382722D02*
X9276301Y-15487484D01*
X9276301Y-15382722D02*
X9285825Y-15363674D01*
X9285825Y-15363674D02*
X9304872Y-15354150D01*
X9304872Y-15354150D02*
X9333444Y-15354150D01*
X9333444Y-15354150D02*
X9352491Y-15363674D01*
X9352491Y-15363674D02*
X9362015Y-15382722D01*
X9362015Y-15382722D02*
X9362015Y-15487484D01*
X9752491Y-15277960D02*
X9581063Y-15535103D01*
X10009634Y-15287484D02*
X10028682Y-15287484D01*
X10028682Y-15287484D02*
X10047729Y-15297008D01*
X10047729Y-15297008D02*
X10057253Y-15306531D01*
X10057253Y-15306531D02*
X10066777Y-15325579D01*
X10066777Y-15325579D02*
X10076301Y-15363674D01*
X10076301Y-15363674D02*
X10076301Y-15411293D01*
X10076301Y-15411293D02*
X10066777Y-15449388D01*
X10066777Y-15449388D02*
X10057253Y-15468436D01*
X10057253Y-15468436D02*
X10047729Y-15477960D01*
X10047729Y-15477960D02*
X10028682Y-15487484D01*
X10028682Y-15487484D02*
X10009634Y-15487484D01*
X10009634Y-15487484D02*
X9990587Y-15477960D01*
X9990587Y-15477960D02*
X9981063Y-15468436D01*
X9981063Y-15468436D02*
X9971539Y-15449388D01*
X9971539Y-15449388D02*
X9962015Y-15411293D01*
X9962015Y-15411293D02*
X9962015Y-15363674D01*
X9962015Y-15363674D02*
X9971539Y-15325579D01*
X9971539Y-15325579D02*
X9981063Y-15306531D01*
X9981063Y-15306531D02*
X9990587Y-15297008D01*
X9990587Y-15297008D02*
X10009634Y-15287484D01*
X10162015Y-15468436D02*
X10171539Y-15477960D01*
X10171539Y-15477960D02*
X10162015Y-15487484D01*
X10162015Y-15487484D02*
X10152491Y-15477960D01*
X10152491Y-15477960D02*
X10162015Y-15468436D01*
X10162015Y-15468436D02*
X10162015Y-15487484D01*
X10295348Y-15287484D02*
X10314396Y-15287484D01*
X10314396Y-15287484D02*
X10333444Y-15297008D01*
X10333444Y-15297008D02*
X10342968Y-15306531D01*
X10342968Y-15306531D02*
X10352491Y-15325579D01*
X10352491Y-15325579D02*
X10362015Y-15363674D01*
X10362015Y-15363674D02*
X10362015Y-15411293D01*
X10362015Y-15411293D02*
X10352491Y-15449388D01*
X10352491Y-15449388D02*
X10342968Y-15468436D01*
X10342968Y-15468436D02*
X10333444Y-15477960D01*
X10333444Y-15477960D02*
X10314396Y-15487484D01*
X10314396Y-15487484D02*
X10295348Y-15487484D01*
X10295348Y-15487484D02*
X10276301Y-15477960D01*
X10276301Y-15477960D02*
X10266777Y-15468436D01*
X10266777Y-15468436D02*
X10257253Y-15449388D01*
X10257253Y-15449388D02*
X10247729Y-15411293D01*
X10247729Y-15411293D02*
X10247729Y-15363674D01*
X10247729Y-15363674D02*
X10257253Y-15325579D01*
X10257253Y-15325579D02*
X10266777Y-15306531D01*
X10266777Y-15306531D02*
X10276301Y-15297008D01*
X10276301Y-15297008D02*
X10295348Y-15287484D01*
X10533444Y-15354150D02*
X10533444Y-15487484D01*
X10485825Y-15277960D02*
X10438206Y-15420817D01*
X10438206Y-15420817D02*
X10562015Y-15420817D01*
X10619158Y-15287484D02*
X10742968Y-15287484D01*
X10742968Y-15287484D02*
X10676301Y-15363674D01*
X10676301Y-15363674D02*
X10704872Y-15363674D01*
X10704872Y-15363674D02*
X10723920Y-15373198D01*
X10723920Y-15373198D02*
X10733444Y-15382722D01*
X10733444Y-15382722D02*
X10742968Y-15401769D01*
X10742968Y-15401769D02*
X10742968Y-15449388D01*
X10742968Y-15449388D02*
X10733444Y-15468436D01*
X10733444Y-15468436D02*
X10723920Y-15477960D01*
X10723920Y-15477960D02*
X10704872Y-15487484D01*
X10704872Y-15487484D02*
X10647729Y-15487484D01*
X10647729Y-15487484D02*
X10628682Y-15477960D01*
X10628682Y-15477960D02*
X10619158Y-15468436D01*
X10809634Y-15287484D02*
X10933444Y-15287484D01*
X10933444Y-15287484D02*
X10866777Y-15363674D01*
X10866777Y-15363674D02*
X10895349Y-15363674D01*
X10895349Y-15363674D02*
X10914396Y-15373198D01*
X10914396Y-15373198D02*
X10923920Y-15382722D01*
X10923920Y-15382722D02*
X10933444Y-15401769D01*
X10933444Y-15401769D02*
X10933444Y-15449388D01*
X10933444Y-15449388D02*
X10923920Y-15468436D01*
X10923920Y-15468436D02*
X10914396Y-15477960D01*
X10914396Y-15477960D02*
X10895349Y-15487484D01*
X10895349Y-15487484D02*
X10838206Y-15487484D01*
X10838206Y-15487484D02*
X10819158Y-15477960D01*
X10819158Y-15477960D02*
X10809634Y-15468436D01*
X11009634Y-15287484D02*
X11009634Y-15325579D01*
X11085825Y-15287484D02*
X11085825Y-15325579D01*
X11381063Y-15563674D02*
X11371539Y-15554150D01*
X11371539Y-15554150D02*
X11352491Y-15525579D01*
X11352491Y-15525579D02*
X11342968Y-15506531D01*
X11342968Y-15506531D02*
X11333444Y-15477960D01*
X11333444Y-15477960D02*
X11323920Y-15430341D01*
X11323920Y-15430341D02*
X11323920Y-15392246D01*
X11323920Y-15392246D02*
X11333444Y-15344627D01*
X11333444Y-15344627D02*
X11342968Y-15316055D01*
X11342968Y-15316055D02*
X11352491Y-15297008D01*
X11352491Y-15297008D02*
X11371539Y-15268436D01*
X11371539Y-15268436D02*
X11381063Y-15258912D01*
X11542968Y-15354150D02*
X11542968Y-15487484D01*
X11495348Y-15277960D02*
X11447729Y-15420817D01*
X11447729Y-15420817D02*
X11571539Y-15420817D01*
X11800110Y-15487484D02*
X11800110Y-15287484D01*
X11885825Y-15487484D02*
X11885825Y-15382722D01*
X11885825Y-15382722D02*
X11876301Y-15363674D01*
X11876301Y-15363674D02*
X11857253Y-15354150D01*
X11857253Y-15354150D02*
X11828682Y-15354150D01*
X11828682Y-15354150D02*
X11809634Y-15363674D01*
X11809634Y-15363674D02*
X11800110Y-15373198D01*
X12009634Y-15487484D02*
X11990587Y-15477960D01*
X11990587Y-15477960D02*
X11981063Y-15468436D01*
X11981063Y-15468436D02*
X11971539Y-15449388D01*
X11971539Y-15449388D02*
X11971539Y-15392246D01*
X11971539Y-15392246D02*
X11981063Y-15373198D01*
X11981063Y-15373198D02*
X11990587Y-15363674D01*
X11990587Y-15363674D02*
X12009634Y-15354150D01*
X12009634Y-15354150D02*
X12038206Y-15354150D01*
X12038206Y-15354150D02*
X12057253Y-15363674D01*
X12057253Y-15363674D02*
X12066777Y-15373198D01*
X12066777Y-15373198D02*
X12076301Y-15392246D01*
X12076301Y-15392246D02*
X12076301Y-15449388D01*
X12076301Y-15449388D02*
X12066777Y-15468436D01*
X12066777Y-15468436D02*
X12057253Y-15477960D01*
X12057253Y-15477960D02*
X12038206Y-15487484D01*
X12038206Y-15487484D02*
X12009634Y-15487484D01*
X12190587Y-15487484D02*
X12171539Y-15477960D01*
X12171539Y-15477960D02*
X12162015Y-15458912D01*
X12162015Y-15458912D02*
X12162015Y-15287484D01*
X12342968Y-15477960D02*
X12323920Y-15487484D01*
X12323920Y-15487484D02*
X12285825Y-15487484D01*
X12285825Y-15487484D02*
X12266777Y-15477960D01*
X12266777Y-15477960D02*
X12257253Y-15458912D01*
X12257253Y-15458912D02*
X12257253Y-15382722D01*
X12257253Y-15382722D02*
X12266777Y-15363674D01*
X12266777Y-15363674D02*
X12285825Y-15354150D01*
X12285825Y-15354150D02*
X12323920Y-15354150D01*
X12323920Y-15354150D02*
X12342968Y-15363674D01*
X12342968Y-15363674D02*
X12352491Y-15382722D01*
X12352491Y-15382722D02*
X12352491Y-15401769D01*
X12352491Y-15401769D02*
X12257253Y-15420817D01*
X12428682Y-15477960D02*
X12447730Y-15487484D01*
X12447730Y-15487484D02*
X12485825Y-15487484D01*
X12485825Y-15487484D02*
X12504872Y-15477960D01*
X12504872Y-15477960D02*
X12514396Y-15458912D01*
X12514396Y-15458912D02*
X12514396Y-15449388D01*
X12514396Y-15449388D02*
X12504872Y-15430341D01*
X12504872Y-15430341D02*
X12485825Y-15420817D01*
X12485825Y-15420817D02*
X12457253Y-15420817D01*
X12457253Y-15420817D02*
X12438206Y-15411293D01*
X12438206Y-15411293D02*
X12428682Y-15392246D01*
X12428682Y-15392246D02*
X12428682Y-15382722D01*
X12428682Y-15382722D02*
X12438206Y-15363674D01*
X12438206Y-15363674D02*
X12457253Y-15354150D01*
X12457253Y-15354150D02*
X12485825Y-15354150D01*
X12485825Y-15354150D02*
X12504872Y-15363674D01*
X12581063Y-15563674D02*
X12590587Y-15554150D01*
X12590587Y-15554150D02*
X12609634Y-15525579D01*
X12609634Y-15525579D02*
X12619158Y-15506531D01*
X12619158Y-15506531D02*
X12628682Y-15477960D01*
X12628682Y-15477960D02*
X12638206Y-15430341D01*
X12638206Y-15430341D02*
X12638206Y-15392246D01*
X12638206Y-15392246D02*
X12628682Y-15344627D01*
X12628682Y-15344627D02*
X12619158Y-15316055D01*
X12619158Y-15316055D02*
X12609634Y-15297008D01*
X12609634Y-15297008D02*
X12590587Y-15268436D01*
X12590587Y-15268436D02*
X12581063Y-15258912D01*
M02*
